<svg xmlns="http://www.w3.org/2000/svg" viewBox="0 0 533.16 120.48"><path d="M463.72 55.9a4.186 4.186 0 0 1 1 .24c.32 0 .22-.2.36-.24l1.2.12c.39.61 1.05 1.07 1.44 1.68 1.71 2.73 3.89 8.35 3 13.08-.76.09-.62.42-1.44.48-.61-.6-1.15.91-1.64.19-1.38-2-2.5-6.28-3.76-8.35-.73-1.19-1.83-2.62-1.56-4.44.35-.06.56-.08.72-.36a1.6 1.6 0 0 1 .12-2.16c.15-.14.4-.14.56-.24zM23.08 66.34c2.44 0 3.08.85 4.2 2A4.12 4.12 0 0 1 27 70.9c-.17.25-.48.29-.72.48s-.4.65-.72.84c-.79.49-2 .34-2.88.72a23.83 23.83 0 0 0-5.16 3.48c-1 .78-1.25 1.78-3.12 1.8V78c.41-.64.63-3.09 1-4 .49-.15.78-.1 1-.6.4-.62.26-1.63.6-2.28a10.002 10.002 0 0 1 2.28-2.52c.72-.54 1.45-1.21 2.16-1.68s1.24-.13 1.64-.58zm215.76 8.4c0 .28 0 .34.12.48.35 1 1.35 1.64 1.92 2.4a9.072 9.072 0 0 0 5.4 4.08c2.92.82 8.74.71 9.24 3.72-2.6 2.75-9.32 1.3-11.76-.48a11.09 11.09 0 0 1-2.16-2.64c-.15-.22-1.14 0-1.34-.16-1.25-1-2.53-1.17-3.1-2.84a10.07 10.07 0 0 1-.24-4.2c.18-.23.42-.22.84-.24.39.37.51.01 1.08-.12zm2.64 1.68c.37.12.35.12.48.48zm2.76 2.52c.51.18.68.57 1.08.84v.12H245c-.57-.48-1.06-.29-.76-.96zm19.2.48h.84a1.45 1.45 0 0 1 .36 1.08c-1.32 1.73-.39 5.11-1 7.68-.27 1.21.17 2.7-.84 3.12-.83.52-1-.38-1.32-.72l-.6-.24a5.38 5.38 0 0 1-.72-3l.36-2.52c.07-.13.41-.14.48-.24v-1a9.338 9.338 0 0 1 .72-2.28c.3-.49.82-.56 1.2-1 .25-.13.35-.66.52-.88zm-18.12.48h.24v.1c-.21 0-.12 0-.24-.1z" fill="#fdb913"/><path d="M70.21 89.37a10.25 10.25 0 0 1 2.64 1.08c.37.26.39.57 1 .72.21.12.21 0 .6 0a1.33 1.33 0 0 1 .24-.36 1.12 1.12 0 0 0-.12-.6c-.62-1.78-4.15-2.36-6.84-2.28-.18.13-.54.26-.72.36 0 .52-.06 1 .48 1.2zm-1.56 11.16c1.19-1.12 1.4-1.15 1.2-3.36a4.532 4.532 0 0 0-1.32-1.08c.29 1.86.19 1.94-1 3a1.82 1.82 0 0 1-1.8-.84h-.24a4.25 4.25 0 0 0 1.08 2.16 5.9 5.9 0 0 0 2.08.12zm8.52-6.96h-1c-.66.6-1.89.7-2.76 1.08a8.68 8.68 0 0 0-2.4 1.68 1.15 1.15 0 0 0 .24.6 16.26 16.26 0 0 0 5-1.8c.24.05.23 0 .36.12.78 1.1.19 4.86.84 5.64a.55.55 0 0 0 .55.11 1.34 1.34 0 0 0 .6-.24c.35-1.55.17-5.31-.6-6.48-.19-.28-.62-.41-.83-.71zm-39.96 22.56c-.44.33-1.48.16-1.92.48s-.42 1-.72 1.44c0 1.38 1.78 1.27 3.24 1.2a7.3 7.3 0 0 1 1.32-1 1.909 1.909 0 0 1 .24-.72 1.5 1.5 0 0 0-.36-1.08 6.238 6.238 0 0 0-1.8-.32zM2.05 105.45a7.258 7.258 0 0 0-1 1l.12 1.08c.57.56 3.81 3.16 5.16 2.28.25-.11.17-.11.36-.24a4.38 4.38 0 0 0-4.625-4.12zm59.64-5.04c-.92.73-2.92.61-3.36 1.8-.33.74 1.23 4 1.68 4.56l.84.6c.69 0 .62-.16 1-.48-.11-.88-.49-.8-.84-1.32a8.9 8.9 0 0 1-1.08-2.64 13.267 13.267 0 0 1 1.92-.84c.54-.17 1.35 0 1.8-.24.75 0 .72-.14 1.08-.48-.14-1.3-1.9-1.01-3.04-.96zm12 2.64c-1-.53-1.53-1.58-3-1.56a1.33 1.33 0 0 1-.24.36c0 1.47 2.52 2.45 3.6 3-.41.67-3.41 3.13-4.56 2.4a3.15 3.15 0 0 0-1.92.36 1.59 1.59 0 0 0 .36 1 5.85 5.85 0 0 0 5.28-1.08c.47-.3 1.09-.43 1.44-.84s.44-1.18.84-1.8a1.63 1.63 0 0 0-.24-1.08c-.31-.42-1.12-.53-1.56-.76zm305.76-45.12c2.61 0 6.38-.33 7.08-2.28.08-.1.16-.38.24-.48.05-1.19.32-2.82-.72-3 .44-2.07.94-4.15 1.32-6.12a4.789 4.789 0 0 0-1.08-.48 21.816 21.816 0 0 0-1.44 1.68 14.92 14.92 0 0 0-.84 2.16 30.498 30.498 0 0 1-4.8 7.56 1 1 0 0 0 .12.6zm13.92-2.28c1.64 1.18 2.92 0 4.8.48a19.22 19.22 0 0 0 7.8.48c1.88-.42 4-.15 6-.6 3.28-.74 7-.88 10.08-1.56 1.19-.26 2.07.67 3.48.36 1.06-.24 2.49-.24 3.6-.48h1.68a26.783 26.783 0 0 1 4.68-1 1.84 1.84 0 0 0-1-.12c.6-4.29 1.71-9.92-2.64-11.16a6.119 6.119 0 0 0-2.76 0c-3 .95-4 4.08-5 7-.31.84-.26 1.94-.72 2.64v.24a41.665 41.665 0 0 0-6.36.36c-1.46.32-3 0-4.32.24-1.56.34-3.16 0-4.56.36-1.2.26-5.18.55-5.76 0-1.18-.49-.84-3-.84-4.68 0-3.59.22-6.8.24-10.2 0-1 .61-3 .36-3.48l-.12-.36a4.59 4.59 0 0 0-3.24.72l-.36-.48a3.931 3.931 0 0 0-.84 0l-.12.12a9.288 9.288 0 0 0 .6 2.16v15.72c-.26.25-.26.52-.48.84s-.9.56-1.2 1h-.6c.33-1.18 1.1-2.12 1.44-3.36.83-3.1-.69-7.68-2.28-8.76a5.26 5.26 0 0 0-3.36-.48 3.489 3.489 0 0 1 .12-1.56v-.48c-.37.13-.44.29-.72.48-.03 5.35-.71 13.32 2.4 15.56zm7.44-21.96h.6v-.12a8.16 8.16 0 0 0-2.64-.36c-.37.26-.8.25-1.08.6h-.24a8.361 8.361 0 0 0 3.36-.12zm-29.88-7.2c-.39.77.31 1.53.72 2.16a29.862 29.862 0 0 1 2.4 4.8l2 6.6.12 3.6a46.528 46.528 0 0 1-1 10.56c-.48 2.06-1 6.15-2.28 7.08 0 .46-.13.5.12.84a.53.53 0 0 0 .84.24c.8-.3.63-1.14 1-1.92a36.343 36.343 0 0 0 1.56-4.56l.24-2.52c1-4.08 1.54-13.68.24-17.64a28.774 28.774 0 0 0-2.64-5.88 32.113 32.113 0 0 1-2.25-3.72l-.84-.12a1.437 1.437 0 0 0-.23.48zm66.24 26.4h.24l.12-.12a15.999 15.999 0 0 0-.48-2.76c-.34-1.45-.19-3-.48-4.32s.08-2.68-.48-3.6c0-.43 0-.4-.24-.6l.6 7.92a11 11 0 0 1 .72 3.48zM478 103.77c-.08-.69-.35-1-.48-1.68l-.84-.12a1.51 1.51 0 0 1-.36.24 4.14 4.14 0 0 1-.36 1.32 2.87 2.87 0 0 0 .36 1.8c1.03-.07 1.04-1.04 1.68-1.56zM291 84.21l1.2-.36c.33-.16.62-.53 1-.72a3.28 3.28 0 0 0-.6-1.68c-3.36-.53-6.32 4.48-10.32 2.4-1.43-.74-1.28-2.08-2.16-2.88-.37.84.16 1.1 0 1.8a6.921 6.921 0 0 0-.36 2.4 8.81 8.81 0 0 0 2.76 2.16c2.17.9 6.61.44 7.68-1 .05 0-.11-.52-.12-1 .3-.27.52-.86.92-1.12zm43.93-8.16a6.259 6.259 0 0 0 4.44 6.36h1.92c2.7 0 4.74-.19 5.64-1.92.68-1.32.11-3.74-.36-4.68-1.2-2.37-2.94-3.77-4.44-5.76l-1.92-1.8c-.78-1-1.34-2.77-2.4-3.48a6.91 6.91 0 0 0 .6-2.88 12.067 12.067 0 0 1-1.08-1.2 4 4 0 0 0-4.2 1.92c-.45.58-1.09 1-1.32 1.8-.65 2.22 1.9 2.71 3.24 1.8.15.25.07.34 0 .6.53-.16 1.48-.82 2.16-.36.37.21-.11.49.12 1.08s.73 1.25 1 1.8l.24 1.68c.46 1.4 2.81 5.2.6 6.36a16.82 16.82 0 0 1-1.92.36 1.28 1.28 0 0 0-.12.48 1.28 1.28 0 0 1-.72-.24c-.56-.43-.74-1.17-1.2-1.68v-.24zm7.44-1.32c.67 1-.16 2.52-.24 2.88v.12c-.35-.07-.23-.14-.48.12h-.12a5 5 0 0 0 .84-3.12zM340 70.17a3.63 3.63 0 0 1 1.32 1.68 4.163 4.163 0 0 1 0 1.08 10.653 10.653 0 0 1-1.32-2.76z" fill="#e6e7e8"/><path d="M332.53 56.49l2-2.16c1.56-1.14 3.56-2.41 4.68-4 .51-.71.64-2.29 1.08-2.88a46.893 46.893 0 0 0 3.6-6.36 55.542 55.542 0 0 0 3.72-7.68c.24-.74-.23-1.23-.12-1.68a20.406 20.406 0 0 0 .72-2 1.82 1.82 0 0 0 .72-.48c.56.28.55 1 .84 1.56.57 1.11 1.23 2.28 1.92 3.36a9.93 9.93 0 0 0 1.8 2.4c.32.23.85.28 1.08.6.45.62.55 1.37 1 2 .79 1.29 2.16 3 2.52 4.56.11.5-.28 1-.36 1.32l-.12 3.84c-3.48 0-5.39 4.61-6.36 7.2-.37 1-.39 2.22-1 3a1.34 1.34 0 0 0 .12.48 17.401 17.401 0 0 0 3.12-.24c.77-3.19 2-4.85 3.48-7.2h.12c-.06 2.64-1.31 4-1.44 6.36 1.47 0 1.94-.67 3-1-.45-1.86.12-3.44 1.56-4.08.41-.19 1.71 0 2-.24.13-.08.19-.52.36-.6.77-.38 1.84-.06 2.52-.48.46.11.5.27.6.72 2.46 0 4.26-.74 6.6-.72l.12-.12v-6.76a8.94 8.94 0 0 0 .48-3 13.659 13.659 0 0 0-.72-1.68c-.26-.8 0-1.35-.36-1.92l-.84-.72v-1.68c-.28-.77-2.44-2.1-2.88-3.12-.29-.66.18-1.55 0-2.16a31.354 31.354 0 0 0-2.4-3.84v-.24c3 0 4.92.13 5.76-2a2.45 2.45 0 0 0 .12-1.68c-.45-1.3-1.88-2-2.52-3.24-2-3.78-2.71-6.84-6.6-8.76a7.59 7.59 0 0 0-4.2-.6c-1.12.25-2.51.54-3 0-.77 0-.94.22-1 1h-.12a9.78 9.78 0 0 0-1.08-2.28c-.81 0-.91.2-1.2-.36-.62.37-.43 1.26-1.2 1.56 0 .28 0 .34.12.48 0 1.17.11 2.43-.36 3.12s-1.76.94-1.92 1.92a1.36 1.36 0 0 1-.84-.48c-2.16.15-2.14.92-3.24 1.92-.91.82-1.92 1-2.4 2.28a28.831 28.831 0 0 0-.6 8.52 12 12 0 0 1 .48 2.52c1.66.08 1.82 1.29 3.6 1.32a35.994 35.994 0 0 1-3.12 6.6 23.42 23.42 0 0 1-1.32 3c-.16.19-.58.14-.72.36l-.24 1.44q-.442.778-.96 1.51c-.84 1.38-1.19 3-2 4.32-2.24 3.61-5.93 6-9.48 8.28.05.54.15.51.36.84 1.5.06 3.38-1.13 4.52-1.95zm20.76-42.12a1 1 0 0 0 .6-.48h.24v.36a.81.81 0 0 0-.48.24h-.36zm-3 1.56a5.999 5.999 0 0 0 1.92-1.08h.36V15a20.897 20.897 0 0 0-1.8 1.08h-.48zm-50.73 56.6c.43-1.79 2.34-2.83 4-3.08l.12-.12a8.549 8.549 0 0 0-1.68-.12c-.76.52-1.88.48-2.64 1-2.07 1.28-3.19 3.16-6 3.84-2.15.51-5.1-.41-7.32.12-1.85.43-4.18 1.42-5.16 2.76-1.17 0-2.64.09-3-1h-.24v1.68c.86.89 1.67 2.26 4 1.68 1.73-.44 3.15-1.59 4.8-2h4.44c3 0 5.79-.52 7.32-2 .6-.85.82-1.82 1.35-2.66zM61.57 90.45a.9.9 0 0 1-.48.12c-.52.52-3 3.28-2.28 4.32l.12.36a1.34 1.34 0 0 0 .72-.12c.65-.27 1.32-2.38 1.92-3V92c1.33.45 2 2.41 2.76 3.48a1.66 1.66 0 0 0 1-.36c-.08-1.77-2.12-4.54-3.76-4.67zm393.6 9.24c-1.29-.69-2.63-1.28-4.08-1.92a9.61 9.61 0 0 0-1.8-1c.2-.76 1.16-.87 1.8-1.2a45.712 45.712 0 0 1 5.16-2.52 7.26 7.26 0 0 0-1.44-2.76c-1.88.31-3.33 2.26-4.68 3.24-.62.44-1.57.73-2 1.32-.39-.5 0-1.27-.24-2-.26-1-.85-4.69-1.32-5.4a5.13 5.13 0 0 0-2.76.6h-.24a22.193 22.193 0 0 0 2 5.52 6.416 6.416 0 0 0 .48 1.44v.24c-2.49-.24-3.84-2.06-6.36-2-.29.3-.71.5-.84 1-.27.9.51 1.19.12 1.56.4.36 5.4 1.39 6.24 1.56v.12c-2.19.62-3.61 2.32-5.88 2.88.22.83 0 1.44.72 2 .48.28.62-.19.84.36a20.908 20.908 0 0 0 5.52-3.36h.24c0 3.25.5 5.72.48 8.88 1.1-.1 2-.49 3-.6a25.259 25.259 0 0 0-.84-5c-.17-.71.09-1.62-.24-2.16v-1.16c1 .62 1.9 1.43 2.88 2s2.32 1.07 3 2c.95-.19 1.33-1.44 1.92-2 0-1.26-.85-1.21-1.68-1.64zm-7.92-2.52a1.658 1.658 0 0 0-.48.24 2.3 2.3 0 0 1-1-.36 1.84 1.84 0 0 1 .12-1c.12-.33.17-.27.36-.48a1.5 1.5 0 0 1 .84.12c.79.31.46 1.02.16 1.48zm19.8 18.96c-.22.16-.63.2-.84.36-.42.15-.45.34-.72.6.14 1.49.87.46 1.68 1 .13.08.19.52.36.6h1.8a3.83 3.83 0 0 1 1-.72l.24-1c-.92-1.05-1.63-.89-3.52-.84z" fill="#e6e7e8"/><path d="M452.05 73.53c-2.21-.6-5.34 0-7.44.12a19.891 19.891 0 0 0 5 .24 3.66 3.66 0 0 1 1.56-.12l3.24 1.92v.12l-1.56-.36c-.31-.23-.41-.68-.84-.84-1.22-.44-3.85-.18-5.16-.48a9.94 9.94 0 0 0-4.92.12 8.493 8.493 0 0 1-1.08.48c-.63 0-.93-.94-1.92-.72-7.19 1.54-10.09 5.88-12.24 12.48-.92 2.8-1.11 6.18-2.4 8.64-.54 1-1.67 1.61-2.28 2.52a44.225 44.225 0 0 0-7.92 1h-1.2c-2.24.5-5 .45-7.2 1l-2.28.12c-2.46.55-5.24.36-7.8 1-1.84.43-4.12.41-6 .84h-1.44a17.792 17.792 0 0 1-3.72.36c.14 1.42.75 2.7.84 4.2 2.11-.11 4.36-.53 6.6-.6h7.2c5-1.11 10.31-1.58 15.24-2.88l2.52-.36c1.35.32 2.78.93 4.56.36a6.57 6.57 0 0 0 2.88-1.68c.82-1.19 1.55-3.46 3.24-3.72 0-1.46-.21-4.4.36-5.28v-3.48c.17-.33 1-.44 1.2-1.08.49-1.42.47-3.08 1.56-3.84 1.25-.87 3.2-.88 4.44-1.8.3-.23.26-.76.48-1.08a5.622 5.622 0 0 1 1.2-1.08 17.669 17.669 0 0 1 5.52-2.16h2.4a35.63 35.63 0 0 1 6.72-.24 6.428 6.428 0 0 1 2.4.12c1.81 0 .87.7 1.68 1.2a9.013 9.013 0 0 0 1.2.36l.12.6a1.34 1.34 0 0 0 .72-.24c.51-.18.52-.5.84-.84v-1a13.149 13.149 0 0 0-6.32-3.92zm-66.36 40.8a.79.79 0 0 0-.84 0c-.54.21-.64.92-.84 1.44h-.72l-.24-1.44c-.25-.55-.9-.88-1.2-1.44l-.84-.12a4.72 4.72 0 0 1-2.88 4.44 10 10 0 0 0-1.8.6c-.3.2-.43.62-.72.84.41.46 1.4.36 2.28.36h5.88c.73 0 1.82.37 2.4 0a2.387 2.387 0 0 0 .48-.24c.15-.72.58-2.77.12-3.48a1.62 1.62 0 0 0-1.08-.96zm-22.8 1.08l-.12-1.2-1.08-1.08c-.31-.19-.7-.16-1-.36h-.24a2.93 2.93 0 0 1-.36 2.28 1.285 1.285 0 0 1-1 0c-.52-.18-.52-.5-.84-.84a1.66 1.66 0 0 1 .36-1.32c-.13-.09-.12-.08-.36-.12-.21.16-.47.08-.72.24-.5.3-.71 1.2-1.2 1.56-.92.66-1.92 1.07-2.88 1.68a10.781 10.781 0 0 1-1.08.84c-1.72.77-3.94.69-5.16 1.92a1.31 1.31 0 0 1-1-.36c0-.28 0-.34.12-.48.21-.61 1.32-1.12 2-1.2v-.12a4.25 4.25 0 0 0-2.28.84c-.14.75 0 1.38.72 1.56.23 0 .55-.15.6-.12.54.25.74 1.14 1.92.84s2.34-1 3.48-1.2l3.6.12c1.32 0 5.28.31 6-.24 1.43-.53.15-1.66 0-2.16s.45-.81.52-1.08z" fill="#e6e7e8"/><path d="M379.09 114.69h-.24c-.74 1-2.4 1.18-3.24 2h-.12v.12c1.29-.32 3.02-1 3.6-2.12zm-1.68-12l-.12-.12-14.88 1.32c0 1 .24 4.1-.12 4.68v.24a24.144 24.144 0 0 0 4.68-.6l4.08-.12c.93-.2 2.06 0 3.12-.24l4-.6zm92.52-15.24c-1.3 1.8-3.06 4.5-5.88 4.68a30.408 30.408 0 0 1 .6 5.76l.72.84c5.23 1.28 6.36-3.47 6.36-8.64 0-1 .27-4.43-.12-5a9.392 9.392 0 0 1-1.68 2.36zm28.92 17.88a10.77 10.77 0 0 0-2-.12 10.76 10.76 0 0 1-1.92 1c-.06.33-.15.34 0 .6a2 2 0 0 0 1.08 1c1 .67 2.43-.42 3-.72.1-.4.36-.83.12-1.2a2.003 2.003 0 0 0-.28-.56zM477 112.17c-.9.54-5.61.43-4.32 2.52a1.647 1.647 0 0 0 .24.48 5.24 5.24 0 0 0 5.4-1.8 1.42 1.42 0 0 0-.12-.72c-.2-.43-.55-.5-1.2-.48zm6.13-3.72a2.08 2.08 0 0 0-.12-1c-.13-.28-.21-.26-.36-.48h-1.2c-1.17.86-2.84 1-1.56 3a3.418 3.418 0 0 0 3.24-1.52zm-2.04 7.68a7.789 7.789 0 0 1-.84 1.32 1.17 1.17 0 0 0 .24.72c.18.25.37.28.6.48a6.23 6.23 0 0 0 2.28-.6c.07-.21 0-.12.12-.24a2.51 2.51 0 0 0-.24-1.32 7.27 7.27 0 0 0-2.16-.36zm-125.64-11.64a45.646 45.646 0 0 0-8.28.72c-2 .44-4.13.07-6 .48-.79.17-5 .33-5.52 0-.84-.23-1.25-1.38-1.68-2a14.58 14.58 0 0 1-2-4.08 9.12 9.12 0 0 1 .12-3.24 21.383 21.383 0 0 0 .24-4.44v-1.72c-.13-.44-.73-.76-.84-1.08-.23-.65.69-1.51.36-2.52-.1-.28-.47-.5-.6-.72a20.91 20.91 0 0 1-1.12-2.89c-.87-3.39 2.07-4.69 1.44-7-.76-2.75-3.33-4.07-4.68-6.12h-.12c.18 3 2.16 5.48.72 8.28l-2.64-.84c-1-.27-2 0-3-.24l-4.8-1.8c-1.36-.85-2.07-2.46-3.72-3a11.858 11.858 0 0 0-4.56 0h-2.4c-2.64.57-5.45.37-7.32 1.56-.15.54-.39 1.08 0 1.56.12.37-6.31 2.44-6.12 2.73 1.59.17 9.68-2.16 11.16-2.49a42.135 42.135 0 0 1 8.28-.36 17.85 17.85 0 0 0 9 4.92l2.4.12c1.21.3 1.78 1 3.24 1 .56 1.3 2 5 1 7-.58 1.08-1.85 1.26-2.88 1.92a2 2 0 0 1-1.56-1.08h-.36c.2.58.67.91.84 1.56.71 2.76.27 6.31 1 9l-.12 3.72a8.143 8.143 0 0 0 1 2.64c1.49 2.25 4.06 2.32 7.2 3h4c.39.1 1.09.37 1.56.48l3.24-.12c4.29 1.34 10.07-.12 14.52-.24zm-140.76-7.92l-.84-1-1.2-.24a17.133 17.133 0 0 1-1.44 1 9.691 9.691 0 0 0 0 1.32c.23.24.27.56.48.84s.75.45 1.08.72c1.91.05 2.09-.96 1.92-2.64zm-2.76.24a1.47 1.47 0 0 1 .48-1 1 1 0 0 1 .6.12c.72.26.48 1.25-.12 1.44s-.78-.37-.96-.56zm-26.88 18a14.843 14.843 0 0 1-1.56.84c0 .45-.06.22.12.6a9.736 9.736 0 0 1 2.4.48c1.47 0 1.45-.19 2-1a1.12 1.12 0 0 0-.12-.6 6.58 6.58 0 0 0-2.84-.32zm29.64-14.28c-.42.9-.33 2.18-.72 3.12a13.327 13.327 0 0 1-.84 1.92l-.84.84a2 2 0 0 0-.12 1.68v.24c.51.13.77.32 1.2 0 1-.39.51-1.38.84-2.52a16.267 16.267 0 0 1 .84-1.8c.3-.74.24-1.93.72-2.52a1.47 1.47 0 0 0-.24-.84zm1.92-1.2h-.48a1.33 1.33 0 0 1-.24.36c.21 1.24 1.35 1.7 1.8 2.76s.19 2.31.72 3.12c.11.26.1.17.24.36.44-.09.42-.18.72-.36a9.65 9.65 0 0 0-1.44-4.8c-.37-.51-.93-.88-1.32-1.44z" fill="#e6e7e8"/><path d="M216.25 94.65H216v-3.48c0-.67.21-1.56 0-1.92-.65-1.83-6-.84-7.08-.12-.86 2.2 1.15 3.57 1.68 5.16.2.08.11 0 .24.12a1.38 1.38 0 0 0 .72-.24 15.552 15.552 0 0 0-1.8-3.6 1.48 1.48 0 0 1 .12-.84c.81-.64 3.19-.39 4.56-.36-.22 1.85.17 5.55 1 6.84 1-.1.35-.2.84-.6a20.896 20.896 0 0 1 2.88-1.2c1.16-.35 2.06-.09 3-.6a1.35 1.35 0 0 0-.24-.72c-1.92.05-4.83.52-5.67 1.56zm-10.32-1.8a1.61 1.61 0 0 0-.24-1H205c-1.66 1.82-1.89 3.34-1.8 6.6a2.227 2.227 0 0 1 .36.48c1.85-.12.49-1.61.84-3a6.5 6.5 0 0 1 1.53-3.08zm-16.2 19.56c-.72 1.36 1.39 1.74 2.16 2.4a1.47 1.47 0 0 0 .84-.24c-.04-.95-2.05-2.15-3-2.16zm14.88-10.8a6.13 6.13 0 0 1-2.76 1.32 3.7 3.7 0 0 0 .84 1.44v.12c.82-.28.75-.91 1.32-1.32a14.306 14.306 0 0 1 1.32-.72 1.47 1.47 0 0 0-.24-.84zm5.39-.72a1.34 1.34 0 0 0-.24-.6h-.72c-.39.48-1 .49-1.56.84-.82.54-1.23 1.49-1.92 2.16.1 1.85 2.35 2.8 4 3.12a2 2 0 0 1 .48-.36v-.72s-2.81-1.51-3-1.56c.4-1.35 3.03-1.98 2.96-2.88zm104.05-7.08c-.66-.28-1.48.6-1.92 1-1.4 1.12-4.07 2-5 3.48a1.84 1.84 0 0 1-.48-.12c.05-1.52.81-6.25 1.44-7.08v-.84a17.573 17.573 0 0 1-2.52-.6c-.72 1.8-.5 4.22-1 6.36-.18.8.17 1.66-.24 2.16l-.12.12a20.104 20.104 0 0 0-1.8-1.92c.09-1.19 1.51-4 1.08-4.68a2 2 0 0 0-.24-.48c-.21-.08-.12 0-.24-.12h-.84c-.46.2-2.07 4.42-1.8 5.52a6.38 6.38 0 0 0 3.24 3.6c-.58 1.87-2 2.59-3.84 3.24a2.35 2.35 0 0 1-.12 1.08 2 2 0 0 0 .12.72c2.23.13 3.44-1.21 4.68-2.4.57 1.69-.47 6.79-1.56 7.2a3.18 3.18 0 0 0 1.92.12 1.08 1.08 0 0 0 .6-.12c1.14-1.39 1.21-5 1.32-7.32a15.782 15.782 0 0 1 2.52 2.64c.15.2.16.58.36.72a1.27 1.27 0 0 0 1.08 0c.51-.18.52-.5.84-.84v-.72c-1.41-1.32-2.67-2.77-4.08-4.08a18.31 18.31 0 0 0 1.8-1.44 35.332 35.332 0 0 1 4.92-3 3.9 3.9 0 0 1 .12-1.68c-.06-.47.06-.33-.24-.52zm-8.64 5.76c-.1.51-.22.43-.48.72-.71-.06-.72-.26-1.08-.6a1.738 1.738 0 0 1 .24-.84 3.064 3.064 0 0 0 .48-.24l.72.24c.07.33.2.56.12.72zm23.64 14.04a11.232 11.232 0 0 0-2.16-.12c-.32.21-.79.1-1.2.24a7.709 7.709 0 0 0-1.56.84 1.61 1.61 0 0 0 .36 1.56c1.57.05 5.72-.48 4.8-2a1.998 1.998 0 0 0-.24-.52zm-21.72-31.08a8.44 8.44 0 0 0-2.28-.24c-.9.61-2.8.73-4 1.08l-6.12 2c-3.23 1.4-5 4.06-7.68 5.88-1.2.8-3.36 1-4.2 2.16a8.892 8.892 0 0 0-.72 1.8c-.32.7-1 1.41-1.32 2.16l-.84 3.12c-.38 1.53 0 3.41-.72 4.56-1.62 2.5-5.58.87-6.6 4.44a4 4 0 0 0 .36 3v.24c-.74 0-2.15.4-2.76 0-1.57-.56-3-4.13-3.72-6.24.44-.31 1.16-.26 1.68-.48a43.303 43.303 0 0 1 6-2.52c1.53-.44 3.56-.35 4.08-1.8.79-1.14.13-6.21-.6-6.72v-.12c-.5.32-.2.76-.36 1.44a12 12 0 0 1-1.08 3.36c-.81 1.23-2.9 1.77-4.44 2.28-3.5 1.16-5.95 3-10 .6l-.12.12.12 1a9.094 9.094 0 0 0 1.8 2.41c-1.57 2.44 1.05 7.32 2.76 8.51s2.92 1.46 5.4 1.44h1.8a13.792 13.792 0 0 0 1.68-1c1-.39 2.47.25 3.36-.12.41-.17.73-.62 1.08-.84.7-.46 1.59-.5 2.28-1 1.14-.78 1.54-2.25 2-3.72.29-.88 1-2.08.6-3.24a5.488 5.488 0 0 0-1.08-1.44 2.4 2.4 0 0 1 .12-1.2v-4.8c0 .23 1 .08 1.08 0l.12-.48a6.47 6.47 0 0 1 2.28-1.44c.92-.38 1.77-.24 2.64-.6a5.22 5.22 0 0 0 1.8-1.56c.28-.77.06-1.39.36-2 1-2.27 3.72-3.19 3.72-6.36a36 36 0 0 1 11.4-3.6zM117.37 62.25c-.88.56-5.33.47-6.72.48a5.37 5.37 0 0 0 2.52 0h2.52a20.364 20.364 0 0 1 4-.36 5.631 5.631 0 0 0-2.32-.12zm106.56 31.2c-.16-.29 0-.09-.24-.24-.54 1.27.93 2.39.36 4.2-.12.37-.61.83-.72 1.2l.12 4.92c-.16.57-.57 1-.72 1.68a1.33 1.33 0 0 1 .24.36c3.38.54 2.05-7.1 1.56-9.24-.23-.99-.09-2.17-.6-2.88z" fill="#e6e7e8"/><path d="M256.93 78.69l-.12-1a5.921 5.921 0 0 0-1.32-1.68l-.72-.12c-.57-.41-.85-1.27-1.44-1.68-.39-.18-1.52.21-2 .24-.28-.14-.75-.1-1.08-.24s-.42-.43-.6-.48c-.55-.16-1.1.25-1.68 0-1-.44-1.51-1.58-2.16-2.4-.21-.14-.87-1-1.26-1.27a12.237 12.237 0 0 1-1.86-1.37v-.24a5.357 5.357 0 0 0-.48.84c-1.42 0-2-1.55-2-2.88l-.12-.12c-.82 0-2.56.24-3.12-.12h-5.76l-1.08 1.2a17.76 17.76 0 0 0-2.4 1.68 2.372 2.372 0 0 1-.72-.12 40.84 40.84 0 0 1 3.71-2.33c0-1.38-1.23-4.21-2.15-4.75a23.236 23.236 0 0 0-2.4-.72l-.36-.36c-.82-.28-1.68 0-2.28-.36h-.24a11.81 11.81 0 0 1 1.56-3c.88-.76 2.2-1.09 2.88-2 1.68 0 2.92.1 4.08-.6.27-.17.64-.61 1-.72.72-.26 1.28-.1 1.92-.36A12.002 12.002 0 0 0 237.5 52a.61.61 0 0 1 .09-.57c.94-1.32 1.89-2.63 2.92-3.89a2.22 2.22 0 0 1 1.76-2c.45-.48.92-1 1.4-1.42 1.81-1.69 4.24-4.25 6.79-4.78l1-.18a2.31 2.31 0 0 1 .9-.62c.85-.51 3.09 0 4.34.3 4 .11 7.93 1 12.05 1.44l.17-.06 1-1a3.87 3.87 0 0 0-.48-2.76c-5.75 0-11.59-.13-17.16-.12-.63.44-1.38.25-2.16.6l-.6.6c-.51.33-1.06.39-1.56.72-3 2-5.77 4.54-8.64 6.72-.83.63-1.31 1.78-2.16 2.4-1.13.82-2.35 1.36-3.48 2.16-.81.57-1.57 1.39-2.4 1.92s-1.58.69-2.28 1.2l-2.16 2.16c-1.17.83-2.42 1.65-3.6 2.4-.27.17-.63.15-.84.36a21.548 21.548 0 0 0-1.44 2.28c-.91 1.17-3.18 1.87-4.8 2.28h-1.56c-3 0-4.12-1-6.12-1.8-3.77-1.6-6.11-4.57-9.24-6.72-1-.67-2-1.33-3-1.92-.65-.39-1.41-.45-2-.84-.9-.56-1.77-1.37-2.64-1.92-2.14-1.34-4.72-1.82-7.08-3-5.17-2.58-9.93-5.47-16.08-7.2l-6.84-.48c-.85-.19-1.9 0-2.88-.24-4.07-.92-9.38-.48-14.28-.48-3.17 0-7.18-.37-10 .24-1 .22-2.38-.07-3.24.12l-4.2.1c-2.69.6-6 .18-8.76.84-1.17.27-2.52.16-3.84.48-6.9 1.63-15.06 1.47-21.48 3.48-2.25.7-4.37.72-6.36 1.56a117.993 117.993 0 0 0-15.6 8.4 20.863 20.863 0 0 1-2.76 1.08c-1 .41-2 1.13-3 1.56-.35.15-.66.06-1 .24-4.41 2.56-9.29 5.49-14.4 7.2-3.53 1.18-8.6 1.2-13.32 1.2-2.49 0-5.28-.3-7.44.24a25.122 25.122 0 0 0-4 1.56c-.83.35-1.57.37-2.4.72a9.629 9.629 0 0 1-2.4 1 3.92 3.92 0 0 0 2 0c2.71-.6 4.67.61 4.68 2.88a3 3 0 0 1-.24 1.68c-.87 1.08-3.09 1.21-4.44 1.8A16.351 16.351 0 0 0 20.77 75c-.32.17-.68 0-1 .24-.57.37-.67 1.14-1.08 1.68l-2.28 1.44c-.51.22-3.95.78-4.08 1-.65.84.25 1.18.48 1.68v2.4l.19 4.61a8.006 8.006 0 0 1 .24 1.08 17.89 17.89 0 0 0 .36 6c.29 1.33 0 2.42.36 3.6 1 3.36 2.57 6.74 5.16 8.52 5.65 3.89 17 1.87 25 1.8.61-.59 1.31-.94 1.68-1.8.68-1.61.44-4.3.84-6.12V98c.66-3.05.56-6.38 1.56-9.12 2-5.45 6.39-8.76 12-10.56l2.8-.47c7.56-2 13.44.32 18.12 3.6a11.29 11.29 0 0 1 2.76 2c2 2.68 3.26 4 4.32 7.8.9 3.28.89 7 1.68 10.2.5 2.08.31 4 1.32 5.52a9.062 9.062 0 0 0 2 1.8c.31.23.53.7 1 .84a6.92 6.92 0 0 0 2.88 0h4.44c4.3 0 9.3.11 13.08-.72 1.47-.33 2.94-.06 4.32-.36l6.6-.12c1.54-.34 2.75.12 4.44-.24a8.929 8.929 0 0 1 3.48-.24c.84.26 1.9.6 3 .84a10.283 10.283 0 0 0 2.64-.12c2.8-.16 5.18 0 7.32-.6l4.68-.12 2.64-.6 4.2-.12c3.08-.67 6.87-.08 9.84-.72l4.92-.12c1.28-.28 3.13.19 4.56-.12 2.28-.5 5.1-.09 7.44-.6s4.59.49 5.76-1a1.669 1.669 0 0 1 .48.12c-.08.92-1.05 1.25-1.92 1.32a2.43 2.43 0 0 0 1.68 0h1.68c-.3-1.24-.79-2.37-1.08-3.72v-2.28c0-4.83 1.86-7.1 3.48-10.2.9-1.73 1.49-3.52 2.52-5.16 1.88-3 5.86-5.28 9.6-6.48a30.002 30.002 0 0 1 8.4-.84 28.491 28.491 0 0 0 3.24.12c2.42-.38 6.51 1.49 8.16 2.52 2.83 1.76 4.88 7.57 5.76 11.52a6.89 6.89 0 0 1-.24 2.4 24.08 24.08 0 0 0 .48 7.32c.16.66-.06 1.22.24 1.68a3.24 3.24 0 0 0 .84 2.76 24.611 24.611 0 0 0 8-.72h1.44a9.342 9.342 0 0 0 2.4-.84c1-.61 1.49-1.79 2.4-2.4s2.26-.43 3-1.08a1 1 0 0 1 .6.48c2.11 0 5.72-1.67 6.24-3.12.17-.28.07-1 .24-1.32a5.685 5.685 0 0 0-.12-1.56c-.92.09-.86.53-1.44.84s-1.06.29-1.56.6a15.006 15.006 0 0 1-2.76 1.56 3.18 3.18 0 0 1-2.64-.12c-.55-.21-2.56-3.18-2-4 .14-1 1.52-1 2.28-1.32 1.23-.6 2.64-1 4-1.56.63-.28 1.39-.82 2-1.08l1.32-.12.48-.48-.12-2c.05-.14.42-.43.48-.6v-3.16l.48-.48a13.867 13.867 0 0 0-.84-4.2c-.13-.2-.59-.19-.71-.36zm-165.6-9.84c-2.7 0-5 .25-7.56.24a2.41 2.41 0 0 0-.48-.36c0-1.94 1.91-.52 3.12-1.2 1 0 4.32-.26 4.92.12h.24c.07.21 0 .12.12.24a1.38 1.38 0 0 1-.36.96zm37.8-21.24c-.17 2.07-.25 5.9-.6 8-.54 3.19.61 4.82-1.68 6.48-1.27.92-3.11 1-4.92 1.44h-1.8c-3 .69-6.48.6-10.08.6h-19c-3.85 0-8.1.22-11.28-.48l-6.12-.12c-1.39-.32-2.88-.54-4.2-.84h-1.8a14.418 14.418 0 0 1-1.92-1.2c-.35-1.35-.18-3.31.84-4 .5-.33 1.1-.28 1.56-.6s1.09-1.06 1.68-1.44l1.92-.84c1.16-.72 2.38-1.41 3.6-2.16a49.774 49.774 0 0 1 6.48-3.12c1.68-.74 3.4-1.8 5.16-2.52 1.49-.62 3.08-.7 4.56-1.32a28.71 28.71 0 0 1 3-1.44c1.74-.54 3.58-.55 5.4-1l2.64-.12c4.69-1.06 10.23-.51 15-1.56H120c1.24-.27 2.86-.21 4.08-.48.43-.1.91.05 1.2-.12a3.78 3.78 0 0 1 2 .24c1.99.78 2.06 3.92 1.85 6.6zm2.4 17.4c.11-.26.1-.18.24-.36l.36.12c0 1 0 1.23-.48 1.68h-.24c-.03-.7-.15-1.08.12-1.45zm2.88 36.6c-.11.08-.38.16-.48.24-.83-1.22-.34-4.64-.72-6.36-1.29-5.8 0-13.45-1.32-19.32-.29-1.33.16-5-.36-5.88v-.6a5.606 5.606 0 0 0 .84.24 36.718 36.718 0 0 0 .48 7.2c.36 1.65 0 3.39.36 4.92v3.24c.58 2.71 0 6.09.6 8.64.34 1.55.17 3.15.48 4.56.19.87-.16 1.87.24 2.52a1.17 1.17 0 0 1-.12.6zm10.08-34c-.47.33-1.94.12-2.64.12-2.13 0-3.61.47-5.4.36a2.413 2.413 0 0 0-.48-.36 1.41 1.41 0 0 1 .36-1.08 12.52 12.52 0 0 0 3.6-.36h4.32a2 2 0 0 0 .48.36c-.01.49.02.81-.24 1zm35-9.36a14.995 14.995 0 0 0-.6 2.64c-3 .76-7.08.37-10.32 1.08-1.32.29-2.77 0-4 .24-1.64.35-3.62 0-5.16.36h-2.4a41.514 41.514 0 0 0-4.56.36c-1.78.38-4-.24-5.64.12h-2.64a6.82 6.82 0 0 1-3-.24h-1.92c-2.19-.51-4.54-.93-5.88-2.28-2-2-.71-6.08-1.44-9.48-.45-2.08-.61-8.28.36-9.72a3.17 3.17 0 0 1 2.76-1.32l1.08.12a49.391 49.391 0 0 1 7.68-.36 22.222 22.222 0 0 0 4-.12c1.06-.23 2.77.37 3.6-.12l6.72.12a29.257 29.257 0 0 1 5.64.24h1.56a27.152 27.152 0 0 1 4.2.84c6.12 2.5 11.14 6 16.44 9.24 1.19.74 2.49 1.05 3.72 1.8a27.858 27.858 0 0 1 2.76 1.56c.33.25.23.54.72.72-.27.72-1 1-1.2 1.8l-2.16-1.08c-1-.37-2.24-.39-3.12-.72-.39.07-.75.5-1.08.6l-2.28-.12a10.69 10.69 0 0 0-3.8 3.76zm49.32 19a10.88 10.88 0 0 1-3.12-1.44 19.343 19.343 0 0 0-2.76-.6c-.79-.26-1.74-.7-2.52-1-.57-.19-1.14-.15-1.56-.48-.1-.08-1.42-2-1.56-2.16-.6 0-.54.23-.84.36a10.11 10.11 0 0 1-1.56.12h-3.12c-3.19.68-7.07.14-10.08.84-1.62.37-3.54.09-4.8.84-1.49.87-2.52 2.85-4.08 3.84-.88.55-2 .66-2.4 1.68-.33.8-.28 1.49-.6 2.28-.45 1.1-1.12 2.26-1.56 3.36-.31.74-.32 1.76-.84 2.28-.31.3-.73.2-1.2.36-.77.25-3.46 1.69-4.44 1.08l-.36-.12v-.48c.47-.1 1.32 0 1.92-.12a31.928 31.928 0 0 0 3.6-1.32c.72-1.76 1.47-3.49 2.16-5.16.46-1.15.5-2.46 1.2-3.36.44-.58 1.52-.68 2.16-1.08a15.749 15.749 0 0 0 1.44-1.2c1.46-1.11 1.78-2.51 4-3.12 2.62-.74 5.59-.47 8.4-1.08.74-.16 1.8 0 2.4-.12 1.17-.26 3.47.27 4.32-.24a10.749 10.749 0 0 0 2.88-.12 1.86 1.86 0 0 0-.48-1.44c.07-.38 0-.29.24-.48s0 0 .24-.12c.89 1.15 2.17 2 3 3.12.29.41.34 1 .84 1.2a44.003 44.003 0 0 0 4.8 1.44l1.44.24c.35.13.63.57 1 .72.77.35 1.59.16 1.92 1 .05.15-.04.11-.04.48zm26 7.8c-1.33 1-5.78 2.26-7.68 1.08-.46-.29-.7-.83-1.08-1.2a20.942 20.942 0 0 0-3.72-3.12c-2-1.15-4.91.72-5.64-2-.35 0-.18-.09-.36 0-.69.13-1 .88-1.2 1.44l-.36.12-.12-.24c-.09-.18.06-.67-.12-1a5 5 0 0 0-1.56-.24c-.22-.46-.49-.9-.72-1.32l-1.08-.36a4.74 4.74 0 0 1-2-.24v-.48c2-.23 3.52.25 4.32 1.68h2a2.002 2.002 0 0 1 .48-.36 16.06 16.06 0 0 1 .24-4.08c.83-.18 1.75-.43 2.52-.6 1.46-.33 2.46.85 3 1.56a31.397 31.397 0 0 0 3.84 3.6c1.33.52 3-.1 4.56.24 3.49.78 5.53.6 5.4 4.44z" fill="#e6e7e8"/><path d="M182.05 43.05h.24v.12c-.21-.08-.12-.03-.24-.12zm.24.12h.24v.12c-.21-.08-.12-.03-.24-.12zm159.12 29.88v.24h-.12v-.24zm-9.84 9.6c.09.12 0 0 .12.24h-.12zm.12.24c.09.13.07.11.12.36h-.12zm-2.28 18.84v.27h-.12v-.24zM349 116.61c.24 0 .23 0 .36.12-.28-.05-.27-.03-.36-.12zm-.39.12h.24v.12c-.21-.08-.12-.03-.24-.12z" fill="#e6e7e8"/><path d="M220.17 74.57c.83.81 2.6 1.21 3.84 1.56.48.14 1 0 1.32.24h.72v-.12c-1-.24-2-.38-3-.72a14.75 14.75 0 0 0-2.88-.96zm15.12 6.96a1.91 1.91 0 0 0 .36 1.44c.3.8 1.38.89 2 1.32a23.997 23.997 0 0 0 3.72 2.52c.72.31 1.51.17 2.28.48s1.68 2.08 3 2.64c3.7 1.57 5.59-.83 7.44-2.16.7-.5 1.6-.86 2.28-1.32a5.93 5.93 0 0 0 .24-1.8 2.16 2.16 0 0 1-.48-.72c-.21-.08-.12 0-.24-.12-.49.32-.49 1.22-1 1.56-.91.65-4.65 2-6.48 1.56-2.4-.61-3.49-3.32-5.52-4.44-.51-.28-.93.15-1.44 0s-.73-.59-1.2-.72c-.9-.23-1.71.08-2.4-.24s-.82-1.18-1.44-1.56c-.09.08-.27.16-.36.24-.33.32-.42.94-.76 1.32z" fill="#d7d7d7"/><path d="M186.57 77.57a16.582 16.582 0 0 0-1.44 3.48c-.31 1.2 0 2.46-.48 3.48a9.151 9.151 0 0 1-3.12 2.76 2.841 2.841 0 0 0 .12 1 12.418 12.418 0 0 0 5.4-1.32c.72-1.76 1.48-3.48 2.16-5.16.47-1.15.5-2.46 1.2-3.36.45-.58 1.52-.68 2.16-1.08a15.749 15.749 0 0 0 1.44-1.2c1.47-1.11 1.79-2.51 4-3.12 2.63-.73 5.6-.47 8.4-1.08.74-.16 1.81 0 2.4-.12 1.17-.25 3.47.28 4.32-.24a10.75 10.75 0 0 0 2.88-.12 1.87 1.87 0 0 0-.48-1.44c.07-.37 0-.29.24-.48s0 0 .24-.12c.89 1.16 2.17 2 3 3.12.3.42.35 1 .84 1.2a44.633 44.633 0 0 0 4.8 1.44l1.44.24c.36.14.63.57 1 .72l1.68.48c.32.22.43.66.84.84 2 .91 2.9.08 4.08 2h2a2 2 0 0 1 .48-.36 5.799 5.799 0 0 0-.12-2.28c-.15-.58-.4-.38-.72-.72-.57-.6-.71-1.34-1.44-1.8-1.58-1-3.71-.91-5.64-1.56-.55-.18-1.14-.64-1.68-.84a10.776 10.776 0 0 1-1.92-.48l-3.36-3.36c-.81-.5-2.42-.38-3.72-.36-1.16.74-5.07.6-7.08.6a24.718 24.718 0 0 0-5.28.48c-1.37.31-2.8.08-4.08.36-1.82.4-3.5-.07-4.8.72-1.88 1.15-3.42 2.83-5.16 4.08s-3.52 1.56-4.6 3.6z" fill="#d7d7d7"/><path d="M258.09 95.57c-.92.09-.86.53-1.44.84s-1.06.29-1.56.6a15.006 15.006 0 0 1-2.76 1.56 3.12 3.12 0 0 1-2.64-.12c-1.15-.45-1.45-2.3-2.16-3.24l-.12-.12a14.602 14.602 0 0 1-.6 1.92c-.53.83-4.3 2.89-5.4 3.36a11.508 11.508 0 0 0-1.8.6c-1.27-.25-1.63-1.52-1.92-2.76v-1.68c-.54-2.33-.91-4.72-1.44-6.84-.41-1.65-.12-3.39-.72-4.8-1.14-2.69-4-3.73-6.72-4.92-1.63-.71-3.12-1.84-4.8-2.52a41.917 41.917 0 0 0-5.16-1.2h-2.76a12.113 12.113 0 0 0-3.12-.36l-5.4.72c-3.47.85-8.85 1.91-10.68 4.32a69.341 69.341 0 0 0-8.4 14c-.81 1.87-2.14 5.91-3.84 6.6-1 .39-2.07 0-3.24.24-1.5.33-3.43.26-5 .6-1.05.23-2.46-.07-3.36.12h-1.8c-2 .44-4.45.26-6.6.72-1.58.34-3.28-.06-4.68.24-2.08.45-4.67-.3-6.6.12h-2.64a31.128 31.128 0 0 0-6 .36h-2.28a40.19 40.19 0 0 0-4.8.24 12.54 12.54 0 0 1-4.32-.24 9.56 9.56 0 0 0-3.6.24c-2.75.6-5.87 0-8.64.6l-9.12.12a25.198 25.198 0 0 1-5 .36h-2.4a14.37 14.37 0 0 1-6.36-.24c-3.65-1.48-7.71-7.53-8.64-11.76-.5.1-.51.26-.84.48a28.672 28.672 0 0 0 .84 5l.12 1.92c.22.87.49 2.27.72 3.12v1.2a8.77 8.77 0 0 0 3.48 4.68c1.16.77 3.66.24 5.28.24 1.79 0 3.66-.11 5.28-.12a23.997 23.997 0 0 0 4.2-.12l3.72-.12c2.11-.46 4.56-.25 6.72-.72h3.12c.94-.2 2.39.12 3.48-.12 1.54-.34 2.76.13 4.44-.24a8.929 8.929 0 0 1 3.48-.24h.07c6.43-1 13.28-.35 19.79-.4.65-.09 1.31-.19 2-.34 1.5-.33 3.12.05 4.44-.24h3.84c2.77-.61 6.19-.08 9.12-.72h2.52a24.465 24.465 0 0 0 5-.36c.7-.15 1.72 0 2.28-.12 2.06-.45 5.1.22 6.9-.4l.64-.34a1.828 1.828 0 0 0 .35-.33 1.84 1.84 0 0 1 .48.12 1.072 1.072 0 0 1-.07.32.2.2 0 0 1 .06.07l.19-.09a.72.72 0 0 1 .74.07l.18-.1c-.22-.58-.47-1.16-.62-1.71a19.022 19.022 0 0 1 .6-8.52c.41-1 1.21-1.83 1.68-2.76.93-1.86 1.72-3.7 2.76-5.4.45-.74.59-1.59 1.08-2.28 2.27-3.15 6.13-5 10.08-6.48.81-.3 1.92.09 2.88-.12a30.835 30.835 0 0 1 6.12-.36l1.92.12c2.42-.37 6.51 1.5 8.16 2.52 2.83 1.77 4.89 7.58 5.76 11.52a6.862 6.862 0 0 1-.24 2.4 24.048 24.048 0 0 0 .48 7.32c.16.67-.06 1.22.24 1.68a3.24 3.24 0 0 0 .84 2.76 24.58 24.58 0 0 0 8-.72h1.44a8.864 8.864 0 0 0 2.4-.84c1-.61 1.49-1.79 2.4-2.4s2.26-.42 3-1.08a.92.92 0 0 1 .6.48c2.11 0 5.72-1.67 6.24-3.12.17-.28.07-1 .24-1.32a5.345 5.345 0 0 0-.11-1.47zm-74.64-28.68l3.48-.12c2.68-.66 5.59-1.35 7-3.36a2.76 2.76 0 0 0 .72-2.28c-.09-.37-.57-.91-.6-1.2-.06-.47.53-.54.24-1.08-.61-1.15-1.42-.17-2-.24-.22 0-.89-.41-1.2-.48l-5.88.36c-1 0-2.63.21-3.24-.24a3.57 3.57 0 0 1-1.36-.89 11.38 11.38 0 0 0-1.61 3.89 11.854 11.854 0 0 1-2.16.48l-.12.12c-.06 4.53 2.28 5.04 6.73 5.04zm-162.6 40.2c.87.36 1.61.19 2.15.83a38.909 38.909 0 0 0 10 .89h.28a3.46 3.46 0 0 1 1.91 0 49.434 49.434 0 0 0 10.48-1.3.655.655 0 0 1 .14 0c.09-.24.17-.46.22-.63v-1.44a26.93 26.93 0 0 0 .6-6.72 37 37 0 0 0-6.72.72 30.205 30.205 0 0 1-4.32.12 1.7 1.7 0 0 0-.72-.12 10.35 10.35 0 0 1-3.24 0h-4.2c-4.15-.89-8-1-10.08-3.84a23.418 23.418 0 0 1-3.24-6.48c-.44-1.34-.2-3.3-1.08-4.2v-.12h-.12c0 6.66.45 16.14 3.6 19.92.85 1 2.5 1.11 3.72 1.8zm72-36.36a2.85 2.85 0 0 0 .15-1.32c-.19-.18-.19-.38-.36-.6s-.53-.29-.72-.48a7.175 7.175 0 0 0-.48.84l-5.4.12-2.16.12c-.39-.14-.45-.57-.6-1a6.262 6.262 0 0 0-1.32-.12c-.28.26-.75.41-1 .72a2.15 2.15 0 0 0 .12 2.16c1.26 2 5.27 1.35 7.68.84 1.83-.34 3.58.37 4.09-1.28zm52.44-.48a5.93 5.93 0 0 0 .24-1.8 2.161 2.161 0 0 1-.48-.72c-.42.08-.45.27-.72.36H140a12.22 12.22 0 0 1-3.48.36 2.41 2.41 0 0 0-.48-.36 1.08 1.08 0 0 0-.12-.6c-1.31 1.23-1.64 1.65-.48 3.36 2.75.71 7.89.66 9.85-.6z" fill="#d7d7d7"/><path d="M88.39 93.35c-.08-.63-.16-1.28-.24-1.92-1.08-3.18-2.44-7-4.32-9.48-1-1.28-2.74-1.84-4.32-2.52a32.26 32.26 0 0 0-13-2.63c-1.09.71-3.37.41-4.44 1.19a1.15 1.15 0 0 1-.48-.6 8.86 8.86 0 0 0-3.36 1.44c-.15.12-.17.39-.36.48-.57.28-1.11.24-1.68.49-.76.32-1.62.72-2.43 1.09-1.37 1.12-2.68 2.31-4 3.48-1.06 2.81-1.51 6.93-2.08 9.46l-.12 3.24c-.14.39-.62.51-.88.77v.09c.08 1.27.16 2.55.35 3.81a.78.78 0 0 1-.657.886l-.033.004c.38.67.86 1.25 1.2 1.76.54.82 1.1 2.36 1.56 3.24.83 1.6 1.28 3.38 2.28 4.8C53.89 116 60 119 66 119h5.16l5.88-1.2c4.58-1.48 8-3.7 10.32-7.44a19.313 19.313 0 0 0 1.44-3.72 16.49 16.49 0 0 0-.41-13.29zm-8 9.24c-.38 1.39-.41 2.46-1.08 3.48-1.94 3-5.16 4.56-9.12 5.52a19.4 19.4 0 0 1-5.4-.12 16.05 16.05 0 0 1-1.44-.71c-3.17-1.19-6-2.65-7.32-5.65-.27-.59-.14-1.25-.36-1.92a15.44 15.44 0 0 1-.36-7.32 23.58 23.58 0 0 1 1-3.72c1.26-3 3.83-4.76 6.84-6 .85-.35 2.62-.16 3.36-.6a18.878 18.878 0 0 1 5.4.36 13.76 13.76 0 0 1 8.44 16.68zM91.63 48a17.004 17.004 0 0 0-1.56-2.16c-.13-.09-.11-.07-.36-.11-.73.68-2.13.79-3.12 1.19-2.43 1-5 2.08-7.32 3.12 1.92 3 4.37 5.66 6.48 8.52a25.352 25.352 0 0 1 2.64 3.36c1.55 0 3.56-.82 4.68 0h9.72c-1.88-3.11-5-5.93-7.2-8.88-1.28-1.74-2.71-3.34-3.96-5.04zm5.64 1.67l-1.56-1.56a18.393 18.393 0 0 0-3.12-3.72c-.19-.1-.41 0-.84 0v.48a23.418 23.418 0 0 1 2.4 3.24c1.44 2 3.09 3.78 4.56 5.76 2 2.75 4.75 5.15 6.6 8 .25 0 .23 0 .36-.11h1.56c-.57-1.61-3-3.67-4.08-5-1.86-2.48-4.02-4.62-5.88-7.09zm47.28 5.4c-2.41-3.35-5.05-6.51-7.44-9.83-.84-1.17-2.09-3.5-3.12-4.33l-.12 4.33v1.91c-.12.39-.48 1-.6 1.44-.69 2.65.32 5.67 1 7.44a9.998 9.998 0 0 0 .84 2.4 6.499 6.499 0 0 0 1.68 1.33c1.17.85 2.35 1.93 4.56 1.43.62-.13 1.34.06 1.8-.24H149a5.328 5.328 0 0 0-1.08-1.44c-1.1-1.51-2.3-2.94-3.37-4.44zM126 40.67a2.72 2.72 0 0 1-1.92.48c.49 1.45 2 2.63 2.76 3.84a28.43 28.43 0 0 0 2.4 4v.24h.12c-.06-1.19-.62-1.82.12-2.52.05-3.97.65-6.14-3.48-6.04zm-4.37.61H117c-.74.46-4.13.09-5.28.35s-2.19.6-3.24.84c-1.38.32-3.2-.15-4.44.12h-4.2a27.918 27.918 0 0 1-4.92 1.08l-.12.13c.55 1.51 3.4 3.78 4.44 5.15 2.54 3.38 5.51 6.32 8 9.72.73 1 1.73 1.84 2.4 2.88l9.24-.24c.48-.13 1-.58 1.44-.72h4.32c1-.25 2.6.09 3.13-.66.91-1.28 1.15-6.09.59-8.1-1.08-3.83-4.76-7.39-6.73-10.55zM159 55.31a41.013 41.013 0 0 0-3.72-4.07l-1.44-1.33a55.096 55.096 0 0 0-4.08-4.56c-1.14-1.2-2.31-2.42-3.48-3.59a10 10 0 0 1-2.16-2.41l-.6-.11a1.31 1.31 0 0 1-1.44.11 1.35 1.35 0 0 0-.72.24c.14.75.72 1.15 1.08 1.69.93 1.4 1.84 2.82 2.76 4.19 2.21 3.33 4.26 6.65 6.48 10a49.289 49.289 0 0 1 3.84 5.76c.21.08.12 0 .24.12.47-.09.42-.12.6-.48a26.313 26.313 0 0 0 5.4-.36c.53-.11 1.19.11 1.56-.12h.6c-1.34-1.96-3.59-3.24-4.92-5.08z" fill="gray"/><path d="M63.55 96.47l1.08-1.08c0-2.14-1.75-3.1-2.64-4.44h-.36a10.942 10.942 0 0 1-1.44 2.29c-.32.6-.33 1.29-.72 1.79.13.97 2.82 1.5 4.08 1.44zm12-2.4c-1.16 1-3.6.69-3.72 2.76A6.6 6.6 0 0 0 77 99.24a1.999 1.999 0 0 1 .48-.37c.2-.8.53-2.79 0-3.59 0-.78-.28-.78-.6-1.21zM385 106c-.07-1.67-.86-3-1.32-4.44-.19-.57-.11-1.4-.48-1.79-.13-.14-.5-.08-.6-.25l-.48-2.16c-.69-2.09-1.25-4.55-1.92-6.59l-2.52-11v-2.86c-.39-1.74-.06-3.72-.48-5.63-.32-1.45 0-3.09-.36-4.69a26.404 26.404 0 0 1-.48-5.16l-.12-.12c-1 .16-.67 1-1.32 1.45-.92.63-3.19 1.29-4.2.35-.6-.31-.19-.56-.48-1.2-.15-.31-.6-.65-.72-1.08-.78-2.74 1.32-5.49 2.4-6.48a7.35 7.35 0 0 0-.12-2 49.312 49.312 0 0 0-8.52.84c-1.41.31-3.39-.41-4.44.24-.64 1-.19 2.81-.48 4.08-.67 3-.53 6.35-1.2 9.36 0 1-.08 2-.12 3-.54 2.48-.44 5.15-1 7.45v2.27c-.75 3.41-.6 7.82-.6 12a187.357 187.357 0 0 0 1 20.52l.12.12c1.07 0 4-.48 4.56-.12a1.23 1.23 0 0 0 .72-.24c0-4.43-.08-8.88-.12-13.32 0-2.05-.28-4.64.12-6.48l.24-5.16c.54-2.35 1.16-4.92 1.8-7.2.48-1.71.43-3.6.84-5.28.57-2.32.58-4.4 1.2-6.59.2-.73.88-2 .72-2.89-.44-1.59-.88-3.2-1.32-4.8-.33-1.11-.22-2.71-.84-3.6a1.669 1.669 0 0 1 .12-.48 2.32 2.32 0 0 1 .6.12c.92 3.64 1.84 7.29 2.76 10.92.64 2.26.56 4.48 1.2 6.84.81 3 1.75 6.2 2.64 9.12.78 2.58.85 5.14 1.68 7.69 1.43 4.37 2.65 9.19 4.08 13.56l.84 4.07c.44 1.37.88 2.72 1.32 4.08.95 0 3.05.31 3.72-.12a6.799 6.799 0 0 0 1.92-.12c-.18-2.15-.94-4-1-6a1.15 1.15 0 0 0 .64-.23zM74.35 61.31c.78-.16 1.61.12 2.16-.24h4.92c-.25-.7-.92-1.12-1.32-1.68-1.06-1.44-2.21-2.79-3.24-4.2-.53-.72-1.06-2-1.92-2.39-1.58 2.2-6.95 1.34-7.8 4.44-1.07 3.76 3.98 4.76 7.2 4.07zm-4.44 40.45a1.307 1.307 0 0 1-.36.23c-.37 1.41-.65 4.17 0 5.52.37.09.7.37 1.2.25a14.303 14.303 0 0 0 4.32-2.89c0-.46 0-.6-.24-.84-.22-.61-3.93-2.29-4.92-2.27zm2.52-11.41a2 2 0 0 0-.43-1.44 12.453 12.453 0 0 0-3.36-.48 2.466 2.466 0 0 1-.48.37 6.31 6.31 0 0 0 .6 4.44c.21.07.12 0 .24.11 1.87.02 2.48-1.96 3.43-3zM62 101c-.71.47-1.91.2-2.52.73-.33.56 1.62 4.07 2.16 4.43.3.23.72-.48 1-.72l1.51-1.44c.29-.42.3-1 .6-1.44a1.3 1.3 0 0 0-.24-.83A3.09 3.09 0 0 0 62 101zm240.11-4.89a10.572 10.572 0 0 0 1.8 1.8l.09.09.12-.12a4.66 4.66 0 0 0-1.44-2.15 15.722 15.722 0 0 1 .36-2c.28.1.2 0 .36.23a1.87 1.87 0 0 0 1.08-.23 13.003 13.003 0 0 1 .6-4 2.641 2.641 0 0 0-.84-.13 9.876 9.876 0 0 1-.84.72c-.82.49.16 1.11-.12 2-.28 1.23-1.15 2.24-1.17 3.79zm153 2.52a31.128 31.128 0 0 0-3.36-1.8c-.59-.25-1-.22-1.44-.59l-.12-.13c1.5-.37 2.82-1.24 4.65-1.22l1.13.25 1.08 2.29c-.08-3.17-.71-3.79-1.37-4.29-2.41.42-4.46 2.51-6.69 3.1.22.79 1.43 1 2.16 1.31 1.12.5 3.84 1.56 4.56 2.4a1.3 1.3 0 0 0 .72-.23c-.11-.94-.7-.72-1.32-1.09zm-223.44-3.72l-.12-1.19a4.88 4.88 0 0 0 .36-2.41c-.74-3.29-2.59-8.71-4.8-10.32-3.43-2.48-7.93-2.93-14-2.88-.69.43-3.16.14-4.08.36a20.539 20.539 0 0 0-6.76 2.53 17.76 17.76 0 0 0-5.27 6.11 21.238 21.238 0 0 1-1 2.28 26.597 26.597 0 0 0-3.6 7.56 8.26 8.26 0 0 0-.24 3.48 2.36 2.36 0 0 1 .12 1 6.939 6.939 0 0 0-.24 2.89 26.476 26.476 0 0 0 3 7c.71.93 2.14 1.33 2.88 2.27.3-.17.14 0 .24-.36.63.39 1.18.94 1.8 1.32a19.552 19.552 0 0 0 4.92 1.68c.93.25 2 .17 2.88.36h1.8c.17.08.43.43.72.48 1 .19 2.2-.25 3.36 0s4.6.77 6.24.36l2.64-1c.19-.13.24-.5.48-.59l1.44-.25c2.26-.82 4.83-2 6-4a14.002 14.002 0 0 0 1-3.35 14.38 14.38 0 0 0 .24-8.17zm-6.84 8.89c-.3.73-1 1.1-1.44 1.67-1.54 2-3.89 2.86-6.84 3.48l-1.32-.12c-6.42 1.41-12.57-2.66-14.28-6.84-.89-2.18-.41-6.55.36-8.4a11.91 11.91 0 0 1 7.2-6.72c1-.32 3.73-.41 4.44-.84 6 0 9.27 2.59 10.68 7.08l.48 3.48a5.367 5.367 0 0 0-.12 1.56c.38 1.71 1.62 3.73.84 5.65z" fill="gray"/><path d="M464.47 97c-.36-.58.12-1.4 0-2a27.338 27.338 0 0 0-.72-4 13.649 13.649 0 0 0-1-1.67l-.08-1.33a22.899 22.899 0 0 0-1.67-4.61c-.35-.56-1.44-.83-1.92-1.32s-.32-1-.6-1.31a17.34 17.34 0 0 0-3.48-1.69 18.58 18.58 0 0 0-8.4-1.92 22.861 22.861 0 0 0 3.6.36c-.59.38-2.28.12-3.12.12-1.92 0-3.52.5-5.16.36l.24.25c-1.7-.24-4.74 1.19-6.16 1.76-3.43 1.51-6.49 5.41-7.68 9.12-.45 1.42 0 2.82-.36 4.44-1 4.55 1.17 12.65 2.88 15 .36.32.72.65 1.08 1 .48.65.9 1.83 1.56 2.28s1.33.48 1.92.84a21.799 21.799 0 0 0 4.92 2.76c.86.3 1.67 0 2.64.24a15.77 15.77 0 0 0 5.4.24l1.08.12a31.08 31.08 0 0 0 4.32-.36 18.88 18.88 0 0 0 5.76-3c.36-.39.72-.8 1.08-1.2a8.809 8.809 0 0 0 1.92-1.56 21.148 21.148 0 0 0 2.88-6.84c.36-1.3-.14-3.35 1-4-.15-1.08-1.53-.94-1.93-2.08zm-19-11.15c.31-.11 1.16-.07 1.44-.25.25 0 .23 0 .36.12l.36.13V86l-.12-.12h-2zm1.08 22.67l-.24.25c-2.38 0-5.82-1.11-6.72-2.53a15.313 15.313 0 0 1-.6-1.68A9.633 9.633 0 0 1 438 102c.44.48.48 1.25.84 1.81a12 12 0 0 0 3 3.23 13.997 13.997 0 0 0 2.76 1.21c.41.13.91-.06 1.2.11h.84zm11.52-7.8a11.273 11.273 0 0 1-1.92 3.84c-.25.33-.81.4-1.08.73-.25 0-.23 0-.36-.13h-.24a5.17 5.17 0 0 1 1-1.08c0-.49-.05-.9-.48-1-.06 0-.15.22-.36.12s-.3-.38-.72-.47a8.82 8.82 0 0 1-2.16 2.39c-.5.34-1.21.37-1.68.72-.32-.41-.09-.9-.24-1.55-.22-1-.56-4.39-1-5v-.13h-.12c.06 3.06 1.07 5.46 1.08 8.28-.88.17-2.12.52-3 .72-.12-.36 0-1.34-.24-1.68-.33-.69-1.26-.22-2-.48-1.63-.53-2.24-2-3.48-2.88.16-.72.82-.56 1.27-1l.75-.38 2.67-2.12a36.81 36.81 0 0 0-4.81 2.91c-.66-.15-1-.16-1.15-.54a10.76 10.76 0 0 0-.41-1.33 3.879 3.879 0 0 1 .87-.75c.14-.86-.62-2.07 0-2.75.34-.34 2.71.12 4.17.21h.24l.88-.17c-1-.16-5.95-1.06-6.64-1.51-.09 0-.66-1.4-.12-2 .36-.55.82-.64 1.8-.6a6.62 6.62 0 0 1 3-3.71 2.539 2.539 0 0 0-.36-1v-.48c.9-.21 2-.41 3-.72a30.089 30.089 0 0 1 1.44 7.56 2.078 2.078 0 0 0 .48-.36v-5.95c2.38 0 4.13.7 5.16 2a1.78 1.78 0 0 0 1-.48c-.17-2-2.11-2.32-3.24-3.36h-.12v-.12c3.06.79 4.3 3.67 5.64 6.25a10.522 10.522 0 0 1 1.32 2.52 21.005 21.005 0 0 1 .2 5.43zM306.79 82.31c-1 .6-2.37.18-3.6.49-1.85.45-4.45 1.12-5.88 2.15a19.34 19.34 0 0 0-4.31 5.64c-.4.94-.45 1.81-.84 2.76a21.174 21.174 0 0 0-1.32 3.48c-.41 1.79.19 3.88.48 5.16.2.91.07 2 .24 2.77.48 2.27-.53 4.35 0 6.71.78 3.5 2.2 5.08 5.4 6.12 1.73.57 4 .24 6.24.36 11.64.65 16.34-5.55 19.44-13.8a36.65 36.65 0 0 0 1.44-4.08c.92-3.71-.78-9.45-2-11.52-2.82-4.55-7.83-6.33-15.29-6.24zm-7 19a1.53 1.53 0 0 1-.12-.85 1.63 1.63 0 0 1 .16.82zm-.48 8a3.94 3.94 0 0 1-.36-1.2 2.689 2.689 0 0 1 .48 1.2zm12.24-7.92v.12a4.16 4.16 0 0 1-1.44-1.56l-.12-.12 1.92-1.2c.67.67.53 2.5-.32 2.76zm.72-4.8c-1.08.69-2.29 1.41-3.36 2.17-.55.38-1 1.09-1.68 1.31.19.44.47.29.72.6s.26.66.48 1c.69 1 2.22 1.48 2.64 2.65.32.71-1 2.4-1.32 3-1.11 1.82-3.36 5.17-7.08 4.19a3.83 3.83 0 0 1-2.76-2.28c-.15-.38-.06-.68-.24-1v-5.89l.48.48c.85-.08 1.13-.5 1.8-.72-.07-1.1-.61-1.52-.84-2.39V98c-.25-.54-.89-.92-1.08-1.68-.34-1.34.64-2.84 1-3.72s.11-1.5.84-2a7.619 7.619 0 0 1 2.4-1.08c.49-.12 1.09.09 1.44-.12 1.54.51 3.68 0 5 .37.85.26 1.18 1 1.8 1.43v.12c-.92-.26-1.66-1-2.52-1.32a1.43 1.43 0 0 0-.72.12 2.46 2.46 0 0 1-1.08-.24l-.24.24c-.78 1-1.08 4.22-1.44 5.65-.14.54 0 1-.24 1.43a2.337 2.337 0 0 0 .12.84 13.088 13.088 0 0 0 2.76-1.79q.48-1.76 1-3.48c.92.24 1.33.87 2 1.31.15.18.72-.37 1.08-.48a9.674 9.674 0 0 0 .48 1.56c0 1.13-.71 1-1.4 1.43zM170.59 44.63a34.583 34.583 0 0 1-2.76-4.2c-1.31-.51-4.39.25-5.4-.36-2.61 0-8 .6-9-1h-.6c-.27 1 .6 1.37 1.08 1.92.93 1.07 1.93 2.25 2.76 3.36 3.81 5.13 8.11 9.81 12 14.89.24.31.71.41 1 .71l4.44-.48c.25.07.77.41 1.08.48 1 .25 2.6-.35 3.36.12h.84c-.52-2.51-1.75-4.1-3-6.12-2.01-3.11-3.82-6.19-5.8-9.32z" fill="gray"/><path d="M306.19 105.59c-.35 1.6-.26 3.13-1.08 4.21a2.16 2.16 0 0 1-1 .23c.73.42 2.79-.83 3.72-1a9.382 9.382 0 0 1 .84-2.64c0-2.34-1.26-2.61-2.16-4-.51.83-.09 2.14-.32 3.2zm-2.19-3c-.54 1.62-2.44 1.65-3.72 2.52-.13.14.14.54 0 1-.39 1.21-.55 2.76.48 3.48.29.21.5.21.72.48l.84-.12c-.11-.34-.39-.55-.48-.84-.42-1.29.27-2.9.36-4.08.95-.39 1.27-1 2-1.56.07-.53.08-.66-.2-.88zm-83.13-8.52l-2 .12c-1.06.33-1.87 1.16-3.12 1.2 0 .89.38.79.84 1.2a14.752 14.752 0 0 0 4.92-1.2c.32-.21.47-.66.72-1l-.12-1a11.186 11.186 0 0 1-1.24.68zm-27.48-37.92c.08-.2 0-.11.12-.24-.13-.63-.51-.54-.72-1s-.16-1-.48-1.44c-.82-1.13-3.84-2.36-5.28-3a20.599 20.599 0 0 1-3-1.44 20.155 20.155 0 0 0-2.16-1.56c-1.7-.78-3.4-1.13-4.8-2.16-2.28-1.65-4.23-3.82-7-5a8.27 8.27 0 0 0 1.44 2.28c1.06 1.61 2.12 3.22 3.12 4.8 1.39 2.21 2.72 4.42 4.08 6.6a15.865 15.865 0 0 0 1.44 2.52c.08.19.1.1.24 0a12.1 12.1 0 0 1 3.24-2c.47-.13 1 .18 1.32.12a8 8 0 0 1 5.4.84c.5.35.7 1 1.08 1.44a1.75 1.75 0 0 0 .72.24 2.67 2.67 0 0 1 1.24-1zm16.32 44.28c0 .35.08.18 0 .37-.28.9-1.48 1-2.16 1.55-.33.25-.5.71-.84 1 .51 1.08 2.31 1 3 1.93a2.351 2.351 0 0 0 .6-.37c.37-1.53 1.3-4.01-.6-4.48zm-1.8-3.96c0-1.82-1.7-2-2.52-3h-.48c-.23.67-1.33 2.45-.72 3.36a2.09 2.09 0 0 0 .12.72 6.55 6.55 0 0 0 3.12-.6zm7.32-6.71c-1.58-.82-3.6-.63-5.64-.37l-.12.12c.07 2.09 1.63 2.62 1.8 4.32h.6c1-1.06 2.83-2.26 3.24-3.84.1-.12.04.01.12-.23zm2.4 13.24a6.53 6.53 0 0 0-1.68-2.52c-.28-.32-.15-.53-.6-.71a4.741 4.741 0 0 0-.36.71c-.11.49.27.95.36 1.33.28 1.24-.42 3.22.24 4.07.14.36.28.34.48.6.92.09 1.7.08 2.16-.6a11.124 11.124 0 0 0-.36-1.07zm96.12-6.76v.23h-.12v-.23z" fill="gray"/><path d="M436 63.76a3.08 3.08 0 0 0-.48-2.76 3.93 3.93 0 0 0-1.68-.24l-.03-.04c-.96.65-3.3.6-4.89.64h-1.56a7.257 7.257 0 0 0-1.56 1 9.17 9.17 0 0 0 0 2.16l.84.84c1.22.43 2.73-.29 3.48-.48l3.24-.12a8.73 8.73 0 0 0 2.64-1zm-7.44.16a4.84 4.84 0 0 1-1.44-.12V63c1.66-.13 5.68-.09 6.81-.84l.03.04a2.19 2.19 0 0 1 .72.12v.6c-1.48.34-5 .22-6.12 1zM67.09 85.2c-.46.3-1.33.08-1.92.28l-1.8.6c-.12.24-.02.12-.12.24v.12c2.14 0 5.09-.53 7.2 0a14.892 14.892 0 0 1 5.28 2.64l1.8 2A8.531 8.531 0 0 1 79.45 93h.12c-.28-1.57-1.48-2.72-2.28-3.72-2.03-2.64-5.45-4.15-10.2-4.08zm21.48-18.96c-1.17.76-3.78-.12-5.24.28a7.683 7.683 0 0 0-1.44 1 5.665 5.665 0 0 0-.12 1.32l.6.72a22 22 0 0 0 8-.24c.82-.24 2.02-.94 1.2-2-.35-1.08-1.54-1.14-3-1.08zm-2.4 2.16h-2.76v-.12c1.32-.58 4 .16 5.28-.6a5.34 5.34 0 0 1 1.56.12c-.8.85-3 0-4.08.6zm-10.48-6.16l4.32.12a19.89 19.89 0 0 1 7.2.24h2.4a20.475 20.475 0 0 1 4.2.36 12.09 12.09 0 0 0 4-.12c1.47-.31 3.36.16 4.68-.12h3.48c.9-.19 2.36.1 3.36-.12 2.54-.55 5.95-.07 8.4-.6h2.76c3.11 0 6.92 0 8.2-1.88 1-1.54.14-4.11.6-6.24.3-1.38.19-3.15.48-4.44v-1.92a21.58 21.58 0 0 0 .12-2.76c.11-2.84-.8-4.68-4-4.68-1.07.67-5.09.12-6.76.36-1.01.24-2.23-.01-3.36.24-4.15.91-9 .42-13 1.32h-2.16c-2.05.46-4.2.44-6.12 1.08-.94.32-1.9.95-2.76 1.32-1.4.59-2.86.66-4.32 1.2-2.9 1.11-5.62 2.78-8.4 4a59.998 59.998 0 0 0-11.88 6.72c-.67.5-.9 1.27-1.44 1.92 0 4.3 5.77 4 10 4zm-5.97-5.72a45.559 45.559 0 0 1 8-4.68c3.12-1.38 6.23-3.08 9.36-4.44 1.23-.53 2.54-.61 3.84-1.08s2.41-1.1 3.48-1.56l4.2-1 4.08-.24c4.5-1 9.8-.42 14.4-1.44h2c1-.23 2.61-.14 3.6-.36s2.06.17 2.76-.24l1.81.04c.26.34.66.53.84 1a16.423 16.423 0 0 1 .24 5.4c-.74 3.43-.55 7.87-1 11.4-.71.37-1.18 1-2 1.2l-7.56.12c-2.39.52-5.79.06-8.28.6h-3.72a35.91 35.91 0 0 1-7 .24c-2.72 0-5.48.28-7.92-.24h-2.4a22.923 22.923 0 0 1-4.45-.4 19.262 19.262 0 0 0-4.32.12c-4.32.09-9.36.07-12.12-1.44a2.662 2.662 0 0 0-.24-.84c.22-1.12 1.6-1.59 2.4-2.16zm62.8 5.92a1.81 1.81 0 0 0-.36-1.2l-.6-.12-.03-.04q-.038.031-.073.066a1.17 1.17 0 0 0-.017 1.654 1.45 1.45 0 0 0 1.08-.36zM408.69 51.6c1.13-.06 2.09-1.81 2.88-2.4 1.43-1.08 2.76-2.15 4.2-3.24s2.57-2.78 4.2-3.84a1.84 1.84 0 0 1 .12-.48 2.406 2.406 0 0 1-.36-.48h-.44a18.698 18.698 0 0 1-2.37 1.96l-1.92 2a57.301 57.301 0 0 0-6.55 5.64c.03.28.02.34.12.48zm34.48 34a9.27 9.27 0 0 0-6.6 6.36c-.36 1.08-.09 2.01-.36 3.24a11.54 11.54 0 0 0 1.68 8.52c1.59 2.61 2.72 4.34 6.12 5.16.8.19 1.16-.08 1.8 0a8.768 8.768 0 0 0 2.4 0h1.44a10.88 10.88 0 0 0 3.6-1.2 1.86 1.86 0 0 0-.24-1.08c-1.2.22-2.43.7-3.72 1a11.509 11.509 0 0 1-4.44-.12 9.493 9.493 0 0 1-3-.84c-1.79-1.08-3.74-4.73-4.32-7.08a16.532 16.532 0 0 1 .12-4.68l.24-2.28a7.91 7.91 0 0 1 5.4-5.64 18.384 18.384 0 0 1 2-.24 10.66 10.66 0 0 1 4.8 0 11.93 11.93 0 0 1 4.56 3.36c.64-.12.84-.31.84-1-2.36-2.32-4.15-4.09-9-4zm-31.36-43.84l.12-.12a2.41 2.41 0 0 1-.36-.48H411a14.596 14.596 0 0 1-1.23 1.08 1.33 1.33 0 0 0 .24.84 2.18 2.18 0 0 0 1.8-1.32zm-195.77 7.32a1.45 1.45 0 0 0 1.08-.36c-.19-1.28-1.28-.63-2.28-1.08-.27-.13-.43-.39-.84-.48a1.33 1.33 0 0 1-.36.24c.02 1.68 1.33 1.05 2.4 1.68zM2.2 67.2h-.03C.42 69.09-.08 73 0 76.68a2 2 0 0 1 .37.44.87.87 0 0 0 .48-.12h.24c.17-.8-.09-2.1.15-3.08.45-2.05.57-4.45 1.68-5.88-.07-.57-.16-.75-.72-.84zm250.76-39.6a1 1 0 0 0-.12-.6c-.06-.54-.16-.51-.36-.84H252a2.856 2.856 0 0 1-.36.48 2 2 0 0 0 .48 1.2 1.33 1.33 0 0 0 .84-.24zm-40.19 57.6c-.77.46-2.2.02-2.84.52-.26.11-.18.1-.36.24.08.46.08.46.48.6a8 8 0 0 0 2.52-.24 8.74 8.74 0 0 1 5.16.6c4.07 2.48 8.64 8.4 6.84 15.48a9.857 9.857 0 0 1-1 3.24c-.28.41-.78.56-1.2.84a9.32 9.32 0 0 1-1.44 1.08c-1.35.54-2.93.46-4.08 1.08a1.7 1.7 0 0 0 .12.6 6.73 6.73 0 0 0 3-.48c2.5-.78 4.28-1.77 5.28-4 1.56-3.65.62-11.5-.6-14.76-1.54-4.1-6.36-4.88-11.88-4.8zm64-38.04a4.5 4.5 0 0 0 0-2.52l-.12-.36h-.52a1.33 1.33 0 0 1-.32.36 11.253 11.253 0 0 0 .12 3c.6-.01.69-.02.84-.48zM6.49 74.88h-.72c-.83 1.81-1.77 6.67-.48 8.88h.72c.36-1.92-.26-5.02.36-6.84.16-.48.46-1.29.24-1.68zM499.56 81c.37.08 1.09.24 1.44 0l.33-.12a2.628 2.628 0 0 0-.12-.84 6.787 6.787 0 0 0-1.402-.119 1.329 1.329 0 0 1-.368.239 2.68 2.68 0 0 0 .12.84zM297.12 51.12c1.52-.32 2.55-1.92 4-2.4.12-.24.02-.12.12-.24a2.194 2.194 0 0 0-.12-.72h-.63a6.327 6.327 0 0 1-1.45.84c-.85.53-1.64 1.29-2.52 1.8a1 1 0 0 0 .12.6.55.55 0 0 0 .48.12z" fill="#59595a"/><path d="M499.77 79.92l.038.001.002-.001zm-16.68.24a1.48 1.48 0 0 1 .6.24c1.28.03 5.7.29 6-.48.12-.12.04-.03.12-.24a1.33 1.33 0 0 1-.24-.36 15.004 15.004 0 0 0-2.76 0l-3.56-.119a1 1 0 0 0-.16.959zm.12-.96l.039.001.001-.001h-.04zm-290.56-2.6c-.77.51-1.98.59-2.52 1.32-.66.89-.74 2.12-1.2 3.24-.69 1.68-1.46 3.37-2.16 5.16-1.05.43-2.36.89-3.36 1.2-.75.24-1.5-.11-2 .24l-.24.12a1.45 1.45 0 0 0 .36 1.08 12.33 12.33 0 0 0 5.76-1.32c.97-.36.93-1.28 1.32-2.28.49-1.19 1.19-2.42 1.68-3.6l.6-2.16c.44-1.05 1.24-1 2.16-1.56 1.49-.92 3.24-3.58 4.68-4.08 3.4-1.18 8.97-.94 13.08-1.32 1.39-.13 5.61.22 6.24-.48 1.11.28 1.13 1.61 1.92 2.16a8.647 8.647 0 0 0 1.92.6 54.467 54.467 0 0 1 5.64 2 21.844 21.844 0 0 0 2.28.84c.28.16.3.48.36.84.6.13 2.28.12 2.76.48.51.19.94 1.01 1.2 1.44a1.23 1.23 0 0 1 .72.12h.72c-.17.46-.27.64 0 1l.36.36c.25-.05.23-.03.36-.12.69-.26.7-1.02 1.2-1.44v-.12c.58.62.79 1.35 1.68 1.68 1.13.41 2.89-.14 4 .36 2.25 1.01 3.49 3.9 5.64 4.8 2.58 1.07 7.73-.93 8.28-2.76.58-.92-.17-2.2-.48-2.64-1.18-1.64-3.05-1.64-5.4-2.16-1.36-.3-3.03.3-4.2-.24a3.53 3.53 0 0 1-1.2-1.2 5.002 5.002 0 0 0-1.08-.84c-1.05-.79-1.62-2.33-2.88-2.88a5.91 5.91 0 0 0-4.32.36c-.39.16-.35.33-.6.6.03 1.55.19 2.95-.48 3.84h-1.44l-.6-1c-.49-.51-2.72-1.35-3.72-.84-.39-.26-.33-.94-.72-1.2l-1.68-.48c-.32-.15-.52-.59-.84-.72-.65-.27-1.25-.15-1.92-.36-1.08-.35-2.36-.83-3.36-1.2l-1.2-.24c-.31-.19-.38-.78-.6-1.08-.88-1.12-2.11-1.83-2.88-3.12l-.72-.12q-.039.037-.075.078a1.39 1.39 0 0 0 .115 1.962v.12a39.175 39.175 0 0 0-7.56.36h-2.16c-.95.2-2.32.16-3.24.36-2.07.45-3.88.09-5.76.84s-2.85 2.94-4.44 4zm44.71-.64a5 5 0 0 0 1.44-.36h1.2c.22.22.61.26.84.48 1.44 1.39 2.94 3.94 4.92 4.68l4.68.24a12.446 12.446 0 0 1 3.24.72l1.08 1.08a2.47 2.47 0 0 1-.36 1.56c-.64.86-4.84 2.1-6.36 1.32-.46-.24-.73-.84-1.08-1.2a16.563 16.563 0 0 0-4.08-3.36c-1.09-.54-3.48 0-4.44-.72-.79-.57-.69-2-1.2-2.88a5.312 5.312 0 0 1 .12-1.56zm-99.63-13.92c1.12.4 2.49-.05 3.84.24a19.21 19.21 0 0 0 6.24 0l3.6-.12c3.58-.81 7.91-.22 11.52-1l4.44-.12a37.57 37.57 0 0 1 7.32-.36c.75 0 2.01-.4 2.64 0 1.31.08.98.57 1.68 1.08a6.582 6.582 0 0 0 1.92.72 6.67 6.67 0 0 0 2.52 0c1.96-.36 4.6.21 6.6-.36a10.42 10.42 0 0 0 1.8-1.08c1.17-.59 2.26.11 3-1 .56-.84.39-3.68 0-4.44-1.6-3.21-5-3.92-8-5.76-5.65-3.51-11.14-7.91-18-10-1.53-.48-3.12-.11-4.8-.48-1.97-.44-4.56.09-6.84-.24a54.656 54.656 0 0 0-7.92-.12 19.248 19.248 0 0 0-4 .32c-2.52 0-9.19-.19-10.68.72-2.14 1.26-1.98 4.73-1.8 8 .36 6.35-.13 12.18 4.92 14zm53.71-2.52c-.46 1-1.72.91-3 1.2a21.25 21.25 0 0 1-8.52 0c-.15-2.79.86-4.5 2.64-5.64.47-.31 1.3-.18 1.8-.48a10.78 10.78 0 0 1 5.64 1.2c.66.39.92 1.37 1.44 1.92zm2.16-2a1 1 0 0 0 .12.6 4.152 4.152 0 0 1-.12 1.2l-.72.12a11.536 11.536 0 0 0-.15-2.08l.03.04.12-.12a1.2 1.2 0 0 1 .72.24zm-59.03-15.8c.99-1.56 7.8-1.2 10.44-1.2.88 0 1.92-.17 3.24-.12 2.85.04 7.25-.4 9.68.16h-.04c1.94.43 4.48-.16 6.24.24 1.41.32 2.64 0 4 .36 5.81 1.58 10 5.1 14.52 7.92 2.36 1.46 4.86 2.54 7.2 4a17.762 17.762 0 0 1 2 1c.6.48.9 1.15 1.44 1.56-.18.29-1 .37-1.32.48-1.36-2.2-6.39-3.92-9.84-2.4-1.46.64-3.61 3.15-3.72 5.16l-.12.12a15.07 15.07 0 0 0-3 .24c-1.24.27-2.87-.12-4 .12h-2.16c-1 .21-2.4.15-3.36.36l-4.44.12-12 1c-3.24.3-10.32.61-12.36-.72s-1.86-3.86-2.52-6.84v-1.56c-.42-1.91-.87-8.44.12-10zm9.56 23.8a25.729 25.729 0 0 0-3-.12c-1.13.71-4.46-.3-5.52.48-.44.31-.51.78-.84 1.2a1.59 1.59 0 0 0 .12.84c.59 1.56 5.14 1.22 7 .84h2c.46-.13.74-.58 1.08-.84a1.43 1.43 0 0 1 .24-.6c-.08-1.07-.6-1.2-1.08-1.8zm-.56 1.68c-.67.47-4.25.36-5.4.36a4.49 4.49 0 0 1-1.8-.12l-.12-.12h.12l.12-.24c1.16 0 3.18.26 4-.24h3.08l.12.12c-.08.21 0 .12-.12.24zm389.48 51.88l-.12-.36h-.72v-.04a.86.86 0 0 0 0 1.12c.64.03 1.18-.21.84-.72z" fill="#59595a"/><path d="M469.44 117.84a26.07 26.07 0 0 0-4.8.12c-1.28.26-2.91-.11-4 .12l-4.2-.12c-.78.12-2.07-.09-3 .12-1.39.31-3.5.4-4.92.72h-2.28a31.695 31.695 0 0 1-5.88-.24l-14-.12-8.64.12a26.088 26.088 0 0 0-7-.24c-1.13.1-5.84.35-6.6-.12h-16.56c.4-2.27-.6-4.83-1.08-6.72-.4-1.6-.05-3.47-.84-4.68v-.24A82.75 82.75 0 0 0 402.8 105l3.24-.24 9.72-1.2 2.76-.12c3.23-.7 5.1.06 6.84-2.28a4.469 4.469 0 0 0 1.08-1.8c.24-.12.12-.02.24-.12.25.05.23.03.36.12.57.82.69 4.19 1.08 5.4a16.895 16.895 0 0 0 2 4.56l1.56 1.56c.49.63.85 1.6 1.44 2s1.33.47 1.92.84c1.73 1.08 3.35 2.4 5.64 3l2.88.24a18.003 18.003 0 0 0 6.72.12l3.6-.12a17.671 17.671 0 0 0 4.92-2.16 18.25 18.25 0 0 0 5.52-5c.67-1.07.95-2.68 1.8-3.6v-.24h.12a19.945 19.945 0 0 0-.48 4.56 2.808 2.808 0 0 1 .48.6c1.92.02 2.24-.55 3.24-1.32.18-2.59.06-5.99.6-8.52.24-.93-.21-2.03.24-2.64 0 0 .8.13 1.2.24a5.65 5.65 0 0 0 3.6-.36c3.54-1.89 3.07-8.92 1-12-.71-.2-2.32-.72-3.12-.12h-.24c-.04-6.18-.22-12.96-1.44-18.24l-.12-2.4c-.37-1.43-.53-3.33-1-4.8-1.87-5.81-6-9.26-9.24-13.68-.47-.61-.65-1.24-1.2-2s-1.6-1.18-2.16-1.92a21.33 21.33 0 0 0-4.44-4.2c-.81-.61-1.35-1.67-2.16-2.28-1.11-.84-2.22-1.57-3.36-2.4l-1.92-1.92a32.502 32.502 0 0 0-6.72-4.44c-3.27-1.42-9.28-1.92-13.56-1-1.83.39-4.06-.1-5.64.24h-3c-2.79.61-6.24.12-9 .72l-4.8.24c-6.24 1.39-13.77.72-20 2.16-1.69.39-6.14-.05-7.2.84-.86-1-1.03-2.76-1.56-4a16.119 16.119 0 0 1-1.2-2.28c-.1-.48.42-.59.24-1.08s-.74-.72-1-1.08c-.85-1.18-1.63-2.53-2.4-3.72l-.72-2c-.87-1.42-2-2.95-3-4.32-1.5-2-4.83-2.72-7.68-3.36-1.23-.28-2.37.24-3.48.24a16.446 16.446 0 0 1-2.19-2.4c-.77-1.26-.86-2.94-1.68-4.08-.46-.64-1.28-.88-1.8-1.44-.74-.79-.36-1.29-1.8-1.68-2.73-.75-6.54 2.24-7.44 3.48-.29.4-.33.88-.6 1.32-.43.71-1.58 2.96-.72 4.08q.022.049.048.096a1.64 1.64 0 0 0 2.222.664 16.933 16.933 0 0 1 1.44 2.52c.21.51.06 1.49.36 2 .46.88.92.09 1.32.36.09.06.16.51.24.6-.23.8-1.2.88-1.8 1.32a5.87 5.87 0 0 0-1.68 2.52 11.998 11.998 0 0 0-.24 3.72 36.3 36.3 0 0 1-.36 7.32c-.22 1.03.26 1.58 0 2.52a49.391 49.391 0 0 1-2.4 5.76l-1.32 4.2a24.91 24.91 0 0 1-2.16 3.12c-.17.27-.07.55-.24.84l-1.2 1.2c-.57.76-1.11 1.5-1.68 2.4s-1.08 2.54-1.8 3.24c-.39.38-1.31.47-1.8.72-2.34 1.21-6.58 2.59-6.72 5.88a27.13 27.13 0 0 0-5.32 1.72 9.001 9.001 0 0 0-1.92.6c-1.47-.49-2.01-1.93-3.12-2.76-.22-.16-.54-.17-.72-.36-.74-.8-.85-1.83-2-2.4-2.08-1.03-4.74.9-6 1.2-.07.02-3.07-.61-3.48-.72-2.01-.56-3.51-1.64-5.28-2.28l-2.76-.48a17.86 17.86 0 0 1-3-1.32 9.324 9.324 0 0 0-1.56-.84l-1.56-.12c-.85-.23-1.8-1.04-3.12-.72a33.62 33.62 0 0 0-7.68 3.36 30.234 30.234 0 0 0-3.48 1.68c-.67.42-.62 1.31-1.08 2-.76 1.12-2.01 1.98-2.76 3.12a13.111 13.111 0 0 0-1.2 2.4c-.19.53-.09 1.04-.36 1.44.12 1.92 1.84 2.25 3.84 2.4.45.03.81.17 1.2-.12.9-.33 1.02-1.67 1.44-2.64s1.27-1.83 1.68-2.76c.3-.68.13-1.78.48-2.52s3.44-1.42 4.44-1.68c.56-.15 1.14.01 1.56-.24 2.68.02 2.56 2.52 4.68 3.12H288l4.8.32h3.36c2.97.66 5.4 1.8 8.4 2.4-.65.45-1.71.33-2.52.6-1.2.39-2.59.92-3.84 1.32s-2.4.36-3.72.72c-2.62.71-5.35 1.06-8 1.92-.95.31-2.06.82-3 1.08-1.58.44-3.83-.24-5.4-.24-.58.56-1.34.86-1.68 1.68-.42 1-.24 6.13.12 7 .45 1.08 1.58 1.54 1.92 2.76.46 1.66.3 5.12 1.2 6.12-.18.83-.74.64-1.32 1-.98.64-2.42 1.41-2.76 2.64-.43 1.55.6 5.36-.24 6.36-.26.75-.92.68-1.56 1-1.3.67-3.88 1.44-5 2.28-1.01-.16-.89-1.5-1.44-2.16.15-.9.74-.74 1-1.44a2.8 2.8 0 0 0-.12-2 34.403 34.403 0 0 0-2-2.88c-.54-.87-.69-2.48-1.2-3.24v-2.16c.23-.58 1.47-.95 2-1.32a6.999 6.999 0 0 0 1.96-2.52 2.57 2.57 0 0 0 .12-2.4c-.51-1.47-5.25-2.82-6.6-1.2-.37.44-.41 1.06-.72 1.56a18.66 18.66 0 0 0-2.28 5.4 12.22 12.22 0 0 0 .12 4.2l.12 2.64c.46 1.91.59 4.13 1 6v2.88a6.51 6.51 0 0 0 2.52 4c-1.15 2.52.52 5.49 1.44 7s1.03 3.16 2.52 4.08c2.08 1.28 6.2.64 8.52.12 1.66-.37 3.27-.07 4.44-.84l2.52-2.52c.63-.48 1.56-.97 1.92-1.68a8.266 8.266 0 0 0 .36-1.68v-7.92c0-1-.12-2.55.36-3.12.6-1.53 2.95-1.26 4.2-2.16a1.51 1.51 0 0 1 .48.12 24.55 24.55 0 0 0 .48 6c.24 1.18.01 2.52.24 3.6v5.76c.78 3.39 2.54 6.06 6.12 6.6-1.25.76-2.86-.54-4-.36-1.67.26-4.31-.12-7.56-.12l-8.88-.12c-1.18.01-2.4.58-3.72.24a8.661 8.661 0 0 0-4.32 0 4.83 4.83 0 0 1-1.92-.36c-1.4-.33-3.13.3-4.32.48a6.109 6.109 0 0 1-1.44-.24l-7.44-.12a30.696 30.696 0 0 1-7.44.48l-3.36-.12c-1.18.66-4.19.44-5.64.12h-4a8.19 8.19 0 0 0-2.52 0 26.233 26.233 0 0 1-4.2-.12 8.83 8.83 0 0 0-2.16.24l-8.52.12a20.408 20.408 0 0 1-3.72-.12c-1.92-.43-4.35.27-6.12-.12-1.37-.3-3.09.12-4.32.12l-8.52-.12c-4.61 0-10.15-.88-14.52.12-.93.2-1.33-.43-2.16-.24-1.35.32-3.44.37-5 .72a18.31 18.31 0 0 1-5.64-.24 9.61 9.61 0 0 0-3.24.12c-1.65.36-4.64-.18-6-.48a19.451 19.451 0 0 0-6.36.36l-4.2-.24-9.6.12h-6.08a15.13 15.13 0 0 1-5.88-.12c-2.21-.49-4.76.34-6.84-.12l-5.88.36c-1.32-.36-3.2-.01-4.68-.36a36.552 36.552 0 0 0-7.56-.36c-3.85 0-7.93.41-11.52.48-.95.02-3.98.24-4.56-.12h-4v-.12c4.31-2 10.33-6.44 11-12h.24a5 5 0 0 0 1 1.56c1.92 2.84 4.94 2 9 2 2.1 0 4.73.28 6.6-.12l5.88-.12c4.92-1.06 11.37-.73 16.92-.84h7.2a23 23 0 0 1 4.2-.12l4.8-.12h2.88c2.11-.46 4.6-.16 6.6-.6h2.4c1.81-.39 4 .19 6-.24 1.47-.36 3.21-.02 4.8-.36a34 34 0 0 1 6.48-.24h2.29c2.47-.54 5.72-.05 8.28-.6h3.12l2.16-.72c2.09 4.18 7.27 9.46 12 11 1.37.44 3.19.28 4.68.6h2.4a17.683 17.683 0 0 0 6.36.24h2.16a16.766 16.766 0 0 0 4.08-.36c2.08-.51 6.86-2.13 7.92-3.6s1.35-2.92 2-4.92a14.006 14.006 0 0 0 .72-2.52c3.46-.01 7.07.18 9.96-.56a16.404 16.404 0 0 0 2.4-.36c1.67-.7 2.35-2.79 4.08-3.36 2.82-.88 7.17-.7 8.64-2.88a14.132 14.132 0 0 0 1-6.6c-.58-2.71-.26-5.73-.84-8.4-.38-1.74.53-3.61 0-5.28a12.295 12.295 0 0 0-1.56-2.88c-.42-.62-.44-1.38-1-1.8-1.68-1.24-5.21-.91-7.92-1.08-2.51-2.61-1.25-5-6.84-5-.59-1.24-1.4-2.65-2.88-3-1.24-.3-5.08.76-6.24-.24-.98-.38-.68-1.46-1.2-2.28-1.19-1.86-3.72-3-6.72-3 .24-.56.69-.67 1-1.08a6.232 6.232 0 0 1 1.2-1.56l2.4-.48c1.1-.32 2.25-.96 3.36-1.32 1.62-.53 3.23-.63 4.56-1.44 2.18-1.33 2-3.4 3.36-5.4a21.497 21.497 0 0 1 2.88-2.76c2.07-2.12 4.77-5.28 7.92-6.12 1.91-.51 4-.16 6-.6a8.91 8.91 0 0 1 3.36-.12c.36.12.73.57 1.08.72.88.37 1.88.19 2.88.48 2.36.7 4.33 1.55 6.6.12a4.64 4.64 0 0 0-.6-3c-.44-1.12-.53-2.51-1.44-3.12-1.57-1.06-8.31-.75-10.68-.24l-6.72.36c-2.11.54-3.4 1.91-4.92 3-.84.56-1.79.96-2.64 1.56-.63.44-1.18 1.12-1.8 1.56-1.03.72-2.18 1.13-3.24 1.8-2.06 1.32-4.12 2.86-6.12 4.32-2.53 1.86-4.56 4.39-7.08 6.24-1.88 1.38-4.39 2.56-5.76 4.44-.33.46-1.26 1.5-.72 2.4v.24h-3.72a22.597 22.597 0 0 1-3-1.2 48.091 48.091 0 0 1-9.72-4.8c-1.09-.77-1.99-1.77-3.24-2.52s-2.6-1.22-3.84-2c-1-.63-1.95-1.68-2.88-2.28-1.51-.99-3.26-1.35-4.8-2.28a71.37 71.37 0 0 0-17.76-7.68c-1.49-.43-2.89-.33-4.44-.72-3.99-1.01-8.94-1.2-13.8-1.2-2.5 0-5.69-.37-8 .12h-3a42.535 42.535 0 0 0-7.8.36h-4.92c-1.15.24-2.54-.05-3.84.24-2.44.52-5.08.32-7.44.84l-7 .36c-1.56.34-3.3.21-4.92.6-4.06.97-8.53 1.32-12.24 2.52-1.27.41-2.54.35-3.72.84-4 1.66-8.08 3.19-12 4.92a87.52 87.52 0 0 0-10 5.52c-1.76 1.1-3.94 1.53-5.76 2.64A67.065 67.065 0 0 1 52 58.92a39.054 39.054 0 0 1-4.83 1.44c-2.14.55-4.94.12-7.08.6-1.31.29-3.04-.14-4.2.12h-2.76a15.445 15.445 0 0 0-3.48.36l-2.4.12a25.088 25.088 0 0 0-7.44 3.24l-2.64 2.64a8.502 8.502 0 0 0-1.56 1.2C13 72 10.74 80.26 12.08 86.76v3l.48 6.12c1.28 5.72 3.39 10.3 8.28 12.36 1.65.69 3.63.78 5.52 1.2h4.2a26.12 26.12 0 0 0 7.44 0c2.31-.48 5.37.34 7-.72a5.4 5.4 0 0 0 1.97-2.68c.14-.42.04-.88.24-1.2v-.12c.27.38.18.82.36 1.32a24.517 24.517 0 0 0 1.92 4.2c1.3 2.21 2.82 4.52 5 5.88a24.234 24.234 0 0 0 2.28 1 11.678 11.678 0 0 0 3.12 1.44c-.64.39-1.89 0-2.64 0h-6.84l-14.16.12c-1.73 0-3.58.64-5.4.24a25.47 25.47 0 0 0-5.16-.36h-7.8c-.84 0-2.53.25-3.12-.12-1.29-.08-1.31.48-.84 1.2 3.26.69 7.83.24 11.52.24h3.72a15.66 15.66 0 0 0 6 .12h4.32l8.16-.12c12.65 0 24.57.12 37.08.12a33.732 33.732 0 0 0 6.72-.36h5.67a29.994 29.994 0 0 1 5.4-.12h2.16c4.35.96 9.02.33 13.8.6L124 120c3.36.72 6.98.12 10.8.12 2.76 0 6.24.42 8.76-.12 2.32-.5 4.29.72 6.48.24a25.8 25.8 0 0 1 9.6.12l4.2-.12c2.25 0 4.18.24 6.6.24a40.341 40.341 0 0 0 5.4-.6l1.2.12 4.92-.24a33 33 0 0 1 7.32-.12 38.683 38.683 0 0 0 7.08.24l5.28.12a16.667 16.667 0 0 1 4-.12c1.82.39 4.24-.3 6.24.12a28.394 28.394 0 0 0 7.92 0c1.71-.37 3.84.07 5.28-.24 1.76-.38 3.8.37 5.52 0a7.181 7.181 0 0 1 2.4.12c1.83.39 3.9-.11 5.52.24a21.237 21.237 0 0 0 6.48-.24 8.473 8.473 0 0 1 3 .12 20.917 20.917 0 0 0 5.52-.6 9.34 9.34 0 0 1 3.36.12c1.52.32 3.43-.03 4.68.24 1.71.37 3.19-.92 5-.48a4.551 4.551 0 0 0 2 .36 6.69 6.69 0 0 1 3-.36 7.66 7.66 0 0 0 3.36.36c1.89-.42 4.49-.12 6.6-.12 2.82 0 6.21-.29 8.64.24h2.16a24.641 24.641 0 0 1 5.28.24h6.24a114.232 114.232 0 0 0 14.16-.72c.56-.07 1.09.37 1.56.48h2.28a13.002 13.002 0 0 0 4.68.24c1.84-.43 4.48-.31 6.48-.6l1.8.24a7.38 7.38 0 0 1 3.12-.36 4.68 4.68 0 0 0 2.16.24 7.054 7.054 0 0 1 .84-.36c.34-.03.5.29.72.36 1.19.36 3-.11 4.08.12h6a28.242 28.242 0 0 0 5.16.12 36.009 36.009 0 0 0 6-.12h4c.16.04.56.36.72.36.92.24 1.39-.4 2.16-.24a16.26 16.26 0 0 0 5-.12c.55-.08.6.24 1 .24a21.003 21.003 0 0 1 5-.12 8.11 8.11 0 0 0 2.64.12c3.64-.78 8.88-.36 13.32-.36 2.98 0 6.52-.32 9.12.24l10.08-.12a22.9 22.9 0 0 0 7.8.12h7.8c7.22.15 15.62 1.12 22-.36h6.32c4.45.07 9.19-.24 13.92-.24 2.44 0 5.44.48 7.44 0 .12-.24.02-.12.12-.24-.06-.54-.16-.51-.36-.84-3.66-.03-7.58-.24-11.52-.24zm-238.83-9.64c-.15.58-.57 1.3-.72 1.92a16.25 16.25 0 0 1-.36 2.28c-.54 1.27-2.45 1.72-3.72 2.28-.48.21-1 .65-1.56.84-3 1.11-11.27 1.36-14.88.6-1.66-.35-3.47.12-4.92-.36-.87-.29-1.25-1.06-1.92-1.44-.33-.19-.62-.06-1-.24a26.76 26.76 0 0 1-3.36-2.4c-1.86-1.4-3.2-4.77-4.2-7.08a28.51 28.51 0 0 1-1.56-3.36c-.41-1.46.15-4.58.48-5.64a23.167 23.167 0 0 1 2.72-4.6c.62-1 .81-2.2 1.44-3.24a18.76 18.76 0 0 1 4.95-5.92c2.23-1.6 5.13-2.19 8.28-2.88 1.22-.27 4.15.3 5-.24 1.72-.02 5.02-.15 6.13.48h-.04c.44.25.89 1 1.32 1.32a9.92 9.92 0 0 1 3.48 4.32c.27.64.21 1.26.48 1.92a32.677 32.677 0 0 1 2 4.8c.32 1.2 0 2.39.24 3.72.36 1.64.31 3.18.72 4.92.36 1.55 1.52 5.94 1 8zm27.04-17.6l.12 3.24-1.56 1.68c-1.38.9-3 1.17-4.32 2.16-2.69.07-2.08-1.1-3.24-2.4 0-2.42 1.52-1.65 3.24-2.28a18.002 18.002 0 0 0 4.32-2.52 2.6 2.6 0 0 1 1.2.12zm-36.17-33.2c1.82-1.34 3.69-2.71 5.52-4.08 2.49-1.87 4.55-4.38 7.08-6.24 1.87-1.38 4-2.86 5.88-4.08 1-.6 2-.93 2.88-1.56.62-.44 1.17-1.12 1.8-1.56.85-.6 1.81-1 2.64-1.56A17.36 17.36 0 0 1 251 35.8c1.1-.44 2.6.06 4-.24s3.16-.17 4.56-.48 3.16.37 4.2-.24c1.41-.07 3.59-.21 4.24.68.7 1 .61 2.52 1.32 3.48v.48c-1.85.36-3.52-.38-5.16-.84l-2.4-.36c-.45-.19-.91-.69-1.44-.84a9.56 9.56 0 0 0-3.48.12c-2.6.56-5.38 0-7.56 1a23.842 23.842 0 0 0-5.4 4 22.604 22.604 0 0 1-1.56 1.8 16.687 16.687 0 0 0-3.6 3.36c-.93 1.37-1.14 3.89-2.52 4.8s-3.06 1-4.8 1.56c-1.1.36-2.25 1-3.36 1.32a15.676 15.676 0 0 0-2.4.48c-.8.41-1.2 1.41-1.8 2s-1.29.82-1.56 1.56a7.55 7.55 0 0 1-2 .12c-.46-.79.72-1.81 1.2-2.16zM18.37 68.28l.48-.6c.7-.38 2.21.17 2.88-.24.82-.02 2.55-.25 3.12.12h.03c.81.08.85.47 1.32.84 0 2.31-.24 2.1-1 3.48-.77.2-1.76.53-2.52.72h-2.27c-.67.15-1.73.21-2.4.36s-1.79-.13-2.4.24h-.72a8.2 8.2 0 0 1 3.48-4.92zm-4.08 6.84c.47-1.05 2.74-.28 3.72-.84h.48a5.17 5.17 0 0 1-4.92 3.6 5.3 5.3 0 0 1 .72-2.76zM46.44 95.4c-.24 1.08 0 2.36-.24 3.36V101c-.5 2.26-.24 5.89-2.28 6.6l-1.92.12a34.723 34.723 0 0 1-7 .36c-11.2 0-16.7-.25-20-8.4a29.293 29.293 0 0 1-1.08-4.8l-.12-3.24a8.77 8.77 0 0 1-.36-3.24 4.227 4.227 0 0 0 .13-1.4 20.945 20.945 0 0 1-.24-4.2c0-.92-.29-2.83.12-3.48.38-.17 1.34.08 2-.12a7.822 7.822 0 0 0 2-1.08c1-.75 1.34-2.41 2.4-3.12a7.12 7.12 0 0 1 1.56-.48c2.82-1 5.09-.85 6-4a5.611 5.611 0 0 0 0-2.76c-.41-.83-1.28-1.09-1.92-1.68h-4.84V66a42.99 42.99 0 0 1 4.92-2.52c1.76-.59 4.08-.53 6-1h3.84c1.24-.27 3.05.18 4.44-.12 3.6-.79 7.63-.21 10.68-1.44a70.012 70.012 0 0 0 10.2-5.16c2.39-1.45 5.19-2.16 7.56-3.6a83.996 83.996 0 0 1 9.6-5.28 128.68 128.68 0 0 1 17-6.12c4.65-1.32 9.72-1.3 14.64-2.4l6.84-.36 7.44-.84h1.92c1.7-.37 3.76.17 5.64-.24 1.24-.27 3.05.18 4.44-.12a35.94 35.94 0 0 1 7-.24c8 0 16.67-.47 23.28 1.2 1.62.41 3.06.35 4.56.84a78.61 78.61 0 0 1 16.68 7.44c1.36.82 2.86 1.21 4.2 2 1 .61 1.89 1.53 2.88 2.16 1.56 1 3.27 1.62 4.8 2.64.8.53 1.49 1.37 2.28 1.92 1.64 1.15 3.57 2.08 5.28 3.12a19.993 19.993 0 0 0 2.4 1 36.656 36.656 0 0 0 5.88 2.28 7.14 7.14 0 0 0 2.16-.12 22.68 22.68 0 0 1 6.84.12l1.8.12c1.32.45 3 1.16 3.72 2.28.41.64.27 1.57.84 2-.26 1.44-2.41 2.44-3.48 2.96-.08.21 0 .12-.12.24.07.66.26.62.6 1 1.36-.19 3.56-2 4.2-3 1.28 0 5.8-.14 6.6.36.68.29.79 1.24 1.2 1.8s1.28.73 1.92 1.2h2.52c1.25.56 1.46 3.28 2.76 4.08 1.11.68 3.22.69 4.8.84h2.16c1 .32 2.93 2.67 3.24 3.72.38 1.29 0 2.4.24 3.6a35.688 35.688 0 0 1 .24 6.72c-2.82.02-3.65 1.65-5.64 2.48-.77.32-1.49.1-2.4.36a6.398 6.398 0 0 0-1.44.84c-.15.54-.47 1-.6 1.56-.45 1.81 1.64 3.73 2.28 4.68 3.64.4 5.94-1.44 8.16-2.88V96c.1.12 0 0 .12.24.48 1-.71 2.23-1.32 2.64-1.51 1-3.86 1.25-5.88 1.8a8.701 8.701 0 0 0-2.4.6c-1.34.83-1.92 2.59-3.6 3.12-1.24.39-4.75.08-5.64.6h-5.4a12.87 12.87 0 0 0-.48-4.8c-.26-1.18 0-2.44-.24-3.48-.45-2 .45-3.56 0-5.52-1.34-5.88-3.61-10.61-8.76-12.72l-4-1.08c-.77-.18-1.89 0-2.52-.12a17.76 17.76 0 0 0-5.28.24h-1.92a34.778 34.778 0 0 0-4.32.84c-3.42 1.28-7 3.43-8.88 6.24-1.18 1.8-1.75 3.89-2.88 5.76-1.73 2.84-3.24 5.15-3.24 9.84a12.705 12.705 0 0 0 .12 3.36c-.91.61-1.34 1.35-2.64 1.68l-8.16.24a33.702 33.702 0 0 1-6.72.36h-2.76c-1.27.27-2.84-.06-4.2.24a21.004 21.004 0 0 1-4.32.36H160c-3.45.75-7.41.1-10.8.84l-9.12.12c-1 0-2.91-.3-3.6.12a4.332 4.332 0 0 1-1.32-.12 58.485 58.485 0 0 0-.84-11.88c-.45-2.06 0-4.23-.48-6.24V85c-.62-2.86 0-6.33-.6-9.12l-.48-11.4c-.13-.37-.11-.36-.48-.48-.12-.1 0-.05-.24-.12a3.086 3.086 0 0 1-.6.48 11.28 11.28 0 0 0 .12 3.84c.24 1.12-.09 2.62.12 3.6v2.4c.33 1.54.14 3.59.48 5.16l.12 4.44c.36 1.66-.27 3.95.12 5.76.49 2.25.24 4.9.72 7.08s.14 4.47.6 6.6c.24 1.12-.41 3 .12 3.84a1.84 1.84 0 0 1-.12.48l-9 .12a33.443 33.443 0 0 0-6.48.24h-1.92c-1.12.24-2.61.24-3.72.48l-4.32.12c-2 .44-4.77-.35-7 .12a35.087 35.087 0 0 1-5.28.24 16.603 16.603 0 0 0-2.4-.36 10.5 10.5 0 0 1-3-4.56c-.34-1.16-.06-2.14-.36-3.36-1-4.11-.85-9.25-2.4-13-2.28-5.47-8.4-9.6-14.51-11.28a19.38 19.38 0 0 0-8.64 0c-1.67.4-3.24.33-4.8.84a22.09 22.09 0 0 0-8.89 5.4c-3.25 3.26-3.36 7.51-4.56 12.84zm24.85 23h-2.88c-2.32 0-4.8.11-6.72-.48a15.154 15.154 0 0 1-1.44-.84c-.51-.22-.94-.15-1.44-.36l-1.92-1.2a7.074 7.074 0 0 1-1.32-.48c-.37-.25-.45-.72-.72-1.08s-.74-.46-1.08-.72c-.49-.37-.6-1-1-1.56-.87-1.26-2.21-2.33-2.88-3.84a29.23 29.23 0 0 1 0-21.36c1.67-3.86 6.67-6.93 11-8.16 1.51-.43 3.11-.48 4.56-.84.62-.16 1.54 0 2-.24 10.73.03 15.28 4.85 18.12 12.64.8 2.19.52 4.76 1.08 7.2a9.81 9.81 0 0 1 .48 3.48 7 7 0 0 0-.12 2 10.72 10.72 0 0 1-.12 4.56 20.66 20.66 0 0 1-9.6 9.84 41.621 41.621 0 0 1-6 1.44zm355.36-33.64a45.168 45.168 0 0 0-1.2 5.88c-.31 1.46 0 3.05-.24 4.32v3.24a5 5 0 0 1-1.8 3.12c-1.58 1-6.48.46-8.76 1l-19.92 2.4a40.596 40.596 0 0 0-.84-7.68l-.12-6.36c-.8-3.67-.63-8.35-1.44-12v-3.92l-.48-7.92a46.471 46.471 0 0 1-.76-9.16h-1.232c-.13.011-.26.023-.387.038a45 45 0 0 0 .939 8.882v1.8c.32 1.46.16 3.34.48 4.8v5c.81 3.73.62 8.43 1.44 12.12v2.28c.24 1.13-.16 2.8.12 4.08s.32 3 .6 4.2-.21 2.69.36 3.6v.24a24.897 24.897 0 0 0-3.84.36c-1.32.28-3-.1-4.2.12-.39-1-.36-2.25-.72-3.36-.81-2.53-1.34-5.2-2.16-7.92-1.29-4.26-2.32-9-3.48-13.56l-.48-7.92-1.2-14a45.548 45.548 0 0 0 9.08-.6h2.28a8.14 8.14 0 0 1 .781-.122l-.001-.038h.388a37.242 37.242 0 0 0 4.352-.32l4.2-.12c2.55-.56 5.72-.25 8.4-.84l3.36-.12 12.72-1.08 5.28-.24c1.82-.4 3.94-.06 5.88-.48a9.31 9.31 0 0 1 3.48-.24c.37.09.78.39 1.08.48.7.2 1.21 0 1.68.36 1.37.93 1 3.2 1.44 5.16.5 2.26 1.18 7.42.36 10-.37 1.14-1.15 1.53-2 2.16-.56.39-1 1.07-1.56 1.44-1.66 1-3.73 1.38-5.4 2.4-3.12 1.9-5.11 4.85-6.48 8.52zm-45.64 27.52a1.64 1.64 0 0 1-1.2-.36 177.647 177.647 0 0 0-5.64-20.64c-.55-1.67-.58-3.29-1.08-5-1.1-3.86-2.09-7.87-3.24-11.64-.39-1.3-.25-2.6-.6-4-.83-3.22-1.46-6.63-2.4-9.72-.54-1.77-.63-3.74-1.44-5.16-1.6.07-.93 1.59-.6 2.76a27.88 27.88 0 0 1 .84 8l.12 1.92c-.35 1.69-.78 3.65-1.2 5.4-.49 2.06-.3 4-.84 6s-1.19 4.38-1.68 6.36v1.44a21.332 21.332 0 0 0-.36 3.36v2.4a28.487 28.487 0 0 0 0 8v10.32l-4.8.12a20.231 20.231 0 0 0-.48-3.84v-1.92c-.2-.93-.15-2.29-.36-3.24l-.12-7.32a26.485 26.485 0 0 1-.12-4.92 50.096 50.096 0 0 1 .6-10.08v-2.16c.52-2.34.43-4.91 1-7.32l.12-3.36c.68-3.05.52-6.49 1.2-9.48.3-1.32-.16-3.27.48-4.32v-.24a43.559 43.559 0 0 0 8.52-.6c1.16-.26 3 .15 3.84-.36h.12c0 2.92-1.36 2.73-2.16 4.56s0 4.79.72 5.88c.54 1.27 1.58.36 2.76.84 1 .39 2.66 1 3.12 1.92.65 1.28 0 3.07.36 4.68.55 2.52.38 5.25 1 7.8l.12 2c1.05 4.41 2 9.12 3.36 13.2l1 4.32a65.24 65.24 0 0 1 3.24 14.16 23.188 23.188 0 0 0-4.2.24zm3.48 1.24v.12a1.4 1.4 0 0 1-.36 1v.12c-.42-.2-.45-.51-.72-.84v-.24a1.7 1.7 0 0 0 .84-.12c.21-.08.12-.14.24-.04zm-24.6.96v.12l-.36.36c-1.1 0-1-.69-1.44-1.32v-.12l1.92-.12c.07.39.18.71-.12 1.08zm18.12-77.72c.47-.72 3.24-.36 4.08-.84a3.64 3.64 0 0 1 2.04.32h.03c.45.23.38.49.6 1a7.452 7.452 0 0 1 .6 1.2v2.28c.65 2.89.17 6.58.48 10.08a16.433 16.433 0 0 1 0 4.32l-1.08 1.56c-1 .19-3.83 0-4.56.48h-3.24c.23-.64 0-1 .24-1.8A44.93 44.93 0 0 0 378.73 43c0-2.2.28-5-.72-6.24zm14.19.04c.82-2.86 4.59-1.35 7.56-2 .64-.15 1.72-.21 2.4-.36h2.64c3.91-.85 8.66-.24 12.48-1.08.89-.2 2.13 0 2.88-.12 2-.44 6.78.59 8.16-.24 1.34 0 3.97-.37 4.89.24.75.94.72 2.8 1.08 4.08.6 2.13 1 4.57 1.56 6.84.3 1.25.21 2.6.48 3.72.36 1.47 0 3.53.72 4.68v.24a56.158 56.158 0 0 0-8.64.72c-1.76.38-3.65 0-5.28.36h-1.8c-2.23.48-4.89.24-7.08.72l-8.4.48a44.583 44.583 0 0 1-8.64.84L394 56c-.77-.4-1.05-2.54-1.32-3.6a27.792 27.792 0 0 1-.48-6.6v-3a16.35 16.35 0 0 1 0-6zm46.17 8.68l.12 2.28a25.872 25.872 0 0 1 .84 5h-.84a51.624 51.624 0 0 0-1-5.64c-.53-2.22-.26-4.29-.84-6.36l-1.8-7.32c.32.07.38.06.52.16.21.08.12 0 .24.12.72 1 .92 3.36 1.32 4.68.64 2.13.9 4.75 1.44 7.08zm-.96-10.56v-.36c1.27.44 3 2.53 4 3.48a62.425 62.425 0 0 1 6.6 7.08c1.61 2.18 3.15 3.38 1.32 6.48a31.719 31.719 0 0 1-8.52 1.08 35.285 35.285 0 0 0-.88-4.92l-.12-2.16c-.42-1.86-.59-4-1.08-5.76s-.42-3.71-1.32-4.92zm26.64 67.68a50.7 50.7 0 0 1-2.88 6.84 10.091 10.091 0 0 1-1.8 3.24 8.49 8.49 0 0 1-1.44.84c-3.21 2.1-6.87 2.52-12.36 2.4l-4.8-.6a20.22 20.22 0 0 1-5.16-2.88c-.53-.34-1.16-.37-1.68-.72s-.89-1.34-1.32-1.92l-1.08-1a13.832 13.832 0 0 1-1.56-2.76 31.36 31.36 0 0 1-1.08-4.8c-1.85-7.56 1.1-15.5 5.28-18.6a28.589 28.589 0 0 1 9.72-4.32c1.1-.29 4.19.14 5-.36 7.47.04 10.89 4.61 13.48 9.52.61 1.15.21 3 .6 4.32.68 2.32 1.85 8 1.08 10.8zm4.08 6.68a1.82 1.82 0 0 0-.72.48h-.24c.13-3.49 1.12-6.74 1.08-10.44l.36-.04c0 3.53-.41 6.52-.48 10zm4.71-21.4a11.65 11.65 0 0 1 2.16-.28 2.153 2.153 0 0 0 .48.36c1.08 2.56 1.28 7.81-1 9.12-.47.27-2.16.91-3 .36h-.24a21.884 21.884 0 0 1 1-2 26.741 26.741 0 0 0 .6-7.56zm-7.08-31.48c1.54 0 1.68 1.76 2.16 2.88a46.411 46.411 0 0 1 1.8 6.36c.36 1.42-.18 3.19.48 4.32v1c-1 .21-.13.14-1.44.12-2.67-2.51-2.93-6-4.44-9.6-.56-1.35-1.48-2.44-1.44-4.32a2.41 2.41 0 0 0 .36-.48l1.08-.36a3.11 3.11 0 0 1 1.41.08zm-85.52-24.12c1.1-.25 2.36-.2 3.6-.48 6.34-1.46 14-.76 20.4-2.16 2.13-.47 4.49 0 6.48-.48h2c2.46-.53 5.66-.08 8-.6h4.56c4.08-.9 11.18-.44 13.92 1.2 4 2.37 7.08 5.32 10.68 8l3 3a39.401 39.401 0 0 1 4.2 4l1.56 1.44c.36.51.48 1.06.84 1.56 1.12 1.55 2.58 3 3.72 4.56a9.62 9.62 0 0 0 1.92 2.4c-.32.46-.93.07-1.56.24a3 3 0 0 0-2.16 1.92c-.47 1.69 1 3.71 1.44 4.8 1.13 3 2.45 9.71 5.28 10.68a5.651 5.651 0 0 0 2.28 0l.49 4.08c.27 1.23 0 2.6.24 3.72v4.2a28.509 28.509 0 0 1-.24 10.44c-.34 1.18-1.31 1.85-1.68 2.88-1.71.33-2.56-.46-3.72-.84a53.582 53.582 0 0 0-1.2-5.76c-.42-1.66-.24-3.22-.72-4.68-.25-.78-.85-1.56-1.08-2.28V83a17.24 17.24 0 0 0-2.64-4.92l-.6-.36a13.652 13.652 0 0 0-4.2-3.24c-.66-.27-1.28-.21-1.92-.48a19.26 19.26 0 0 0-7.56-1.32 9.49 9.49 0 0 0-3.12.24h-.6c.5-.74 1.24-1.19 1.56-2.16.95-2.88.35-7.74-.24-10.44v-1.4c-.34-1.57-.56-3.88-1.68-4.68v-.12c2.82-.52 7.77 0 9.12-1.8 1.68-2.28.87-5.08-.48-7a62.456 62.456 0 0 0-7-7.56c-2.33-2.33-4.44-4.81-8-5.88-2.7-.8-7.29-.12-10.32-.12-4.36 0-9-.09-12.72.72h-2.64c-2.09.45-4.74.12-7 .6h-1.8c-3.34.74-7.79-.24-9.48 2.28-.71 1.06-.6 3.09-.6 4.8 0 3.46-.19 8 .48 11 .42 1.9 0 3.76 1.08 4.92v.12a15.15 15.15 0 0 0-3.6.24h-2.16c1-1.73.72-4.39.72-7 0-2.94.18-6.36-.36-8.76l-.12-3a9.18 9.18 0 0 0-1.61-2.76c-1.56-.37-6.08-.72-7.32.24-.52-.14-1.31-2-1.44-2.64 1.15-.39 2.6.06 4-.24zm-7.63-4.56c.66 1.52 1.21 3.18 1.92 4.8.88 2 2.17 4 2.76 6.24a17.917 17.917 0 0 1 0 6.24l-.12 3.48c-.68 3.08-.89 6.59-2 9.24-.53 1.21-.28 3.06-.72 4.2-.71.29-2 1.07-2.76.48-.36-.24-.14-.6-.36-1s-.5-.38-.6-.72v-1.2c0-2.66 1.62-2.81 2.28-4.56a6.221 6.221 0 0 0 .12-2.28 31.947 31.947 0 0 0-.24-6.12v-7.04A22.612 22.612 0 0 0 370 34.2a56.757 56.757 0 0 1-3.24-6.48c1.19-.71 3.72-1.06 4.68-1.92.8.3.83 1.13 1.17 1.92zm-28.56-14.56a6.21 6.21 0 0 0-1.68-3.92c.36-.55 1.19-.27 1.92-.48.49-.14 1-.58 1.56-.72 1.69-.46 1.55 1.19 3.12.36.13-.79-.52-1.88-.12-2.52.08-.21 0-.12.12-.24a.69.69 0 0 1 .976-.025l.024.025c.9.6.57 1.89 1.2 2.76.3.81.49.21 1.2.6.26.15.68.95 1.08 1.2.08 1.86.18 3.27-1.08 4.08v.12h-.12a.87.87 0 0 1 .24-.48c0-.68 0-.91-.48-1.08a.81.81 0 0 0-.84.24c-.46.58-.61 1.36-1.2 1.8s-1.11.46-1.56.84c-.87-.05-1.35-1-1.68-1.56a1.5 1.5 0 0 0-.84.12c-.46-.12-.75-.61-1-1zm-1.2 5.2c.69-1 2.35-1.21 3.12-2.16.62.21.77.72 1.44 1 1.4.5 2.6-.79 3.24-1.2 2.35 1.21 4.35-2.32 4.35-4.72 6.82-1.48 10.35 2.43 12.84 6.48a12.457 12.457 0 0 1 .48 1.56 11.767 11.767 0 0 0 1.08 1.44c.71 1.14 1.14 2.55 2.16 3.36v.12c-1.33.56-4.33 1.25-5.28 2.16-1.06-.21-1.3-1.6-1.8-2.4-1.1-1.79-2.28-3.67-3.36-5.52-.76 0-.72.14-1.08.48a5 5 0 0 0 1.2 2.4c.93 1.52 1.57 3 2.52 4.56.37.59 1.07 1 1.44 1.56a8.725 8.725 0 0 1 .6 1.68 31.37 31.37 0 0 0 1.92 4c1.11 1.82 3.11 4.49 3.72 6.6v4.44l.24 7.2a35.109 35.109 0 0 0-7.08.72c-1.37.29-4.18-.36-5.16.24a1.84 1.84 0 0 1-.48-.12 26.285 26.285 0 0 0-.48-5.28c-.42-1.86-.09-3.52-.72-5-1.68-4.08-4.61-7.4-6.84-11-1.84-3-2.86-6.66-4.68-9.72a1.54 1.54 0 0 0-1 .24 20.009 20.009 0 0 0 2.52 6.36 5.17 5.17 0 0 1-.36 2.64c-1.69.12-3.77.13-5.64.12l.37-6.72c0-2.13-.13-4.26.72-5.52zm10.08 18.08L351.37 38c-1.17 1.6-2 3.41-3.12 5s-2.76 3.22-4 4.92c-1 1.47-2.84 4.85-4.2 5.76s-3.57.56-4.68 1.56h-.24l4.8-4.8c1.11-1.48 1.64-3.41 2.64-5a67.433 67.433 0 0 0 4.92-9.72 14.092 14.092 0 0 0 1.56-5.16c.5.44.56.96.88 1.44.72 1.17 2 3.62 3 4.44zm-24.6 18.96c.79-.41 1.88-.65 2.4-1.32 1-1.36 1.69-3 2.64-4.44 1.14-1.7 2.76-3.31 3.84-5 .92-1.48 1.08-3.32 1.8-5a60.379 60.379 0 0 0 3-7.68l5.16-.12c.09 2.46-2.45 7.22-3.6 9.12s-2.14 3.75-3.12 5.64a20.003 20.003 0 0 1-1 2.28l-2.88 2.88c-1.64 1.64-3.19 3.37-4.8 5-.51.41-2.26.41-3 1h-.24c.35-.54.55-.65.24-1.32-1.32-.24-1.82.63-2.64 1.2v.84a8.21 8.21 0 0 0-3.08.92h-.48c1.18-2 3.69-2.89 5.76-4zm-24.57 3.28a23.002 23.002 0 0 0 2.4-.72c1.49.04 1.66.68 2.37 1.44h.03v.24c-1-.35-2.26-.07-3.36-.36a9.353 9.353 0 0 0-1.44-.48zm-.71 3.24c-1.05-.29-2.11-.15-3-.6a13.486 13.486 0 0 0-1.32-.84c-1.78-.67-4 .12-6.12-.36a41.21 41.21 0 0 0-5.16-.48c-.66-.06-1.26.33-2.16.12a6.248 6.248 0 0 1-1.56-.36c-1-.66-1.42-2.2-2.52-2.76a4.87 4.87 0 0 0-2.76.12c-2.64.64-4.37.88-6.36 2l-.36 1-.12 1.8a16.82 16.82 0 0 1-1.44 2.28c-.51.87-.74 1.92-1.2 2.76a5.73 5.73 0 0 1-2.52-.48c-.19-.16-.14-.07-.24-.36a3.538 3.538 0 0 1 .24-1.44 15.366 15.366 0 0 1 2-3c.55-.75 1.31-1.4 1.8-2.16.31-.49.26-1.24.72-1.56l7.44-3.72a16.783 16.783 0 0 0 2.88-1c3.14.12 5.56 1.73 7.8 2.68 1.06.45 2.33.33 3.48.72 1.39.47 2.6 1.37 4 1.92 1.18.48 2.4.33 3.72.72 1.5.44 2.86 1.2 4.32 1.68l3.84.36a11.87 11.87 0 0 1 2.16 1.2c-.69.48-1.81.25-2.76.48-1.91.46-3.43-.34-4.8-.72zm-19.68 48.32a20.56 20.56 0 0 1-4.2 4.44c-.4.24-1.15.11-1.56.36a1.32 1.32 0 0 1-.72-.12c-.36-.41-1.13-2.37-.72-3 .57-1.49 2.18-.51 3.84-1a6.027 6.027 0 0 0 3.36-3.36 4.83 4.83 0 0 1-.04 2.6zm5.88-15.08c-.69.49-1.64.39-2.52.72a7.69 7.69 0 0 0-2.64 1.68c-.68.9-.26 2.38-.72 3.12v5c-.11.17-1 .56-1.2.84-.64.85-1.16 2.32-2.16 2.76-.8.35-2-.14-3 .12a3.92 3.92 0 0 0-1.56 1c-.35.31-.54.32-.72.84-.62 1 .18 3.33.6 3.84v.12a17.472 17.472 0 0 0-2.88.48 7.361 7.361 0 0 1-2.64-.12l-1.68-.24c-1.35-.56-1.62-2.22-2.28-3.48l-1.08-1.68c-.3-.7-.2-1.76-.6-2.4v-1.44c1.38.55 4.92.3 5.88-.48a2.57 2.57 0 0 0 1.68-.36 1.33 1.33 0 0 0-.36-1l-1.56-.12c-.65.17-3.52 1.21-4.32.72-1-.06-1.13-.59-1.68-1.08-1.31-1.17-1.47-1.81-1.92-3.84V98.4c-.42-1.87-.53-4.09-1-6l-.12-2.52a12.22 12.22 0 0 1-.12-4.2 16.672 16.672 0 0 1 1.44-3.36c.52-1 1.11-3.62 3.12-3a22.788 22.788 0 0 1 2.52 1.2c0 2.36-2.49 3.92-4.08 4.68-.95 3.89 1.38 8.12 3.24 10a3.41 3.41 0 0 1-1.08 2c0 1.87.94 2.93 1.68 4.08 2.58.5 4.66-1.25 6.48-2 1.09-.47 2.3-.73 2.76-1.8.68-1.58.25-4.7.24-6.72a9.63 9.63 0 0 1 4.2-2.52c2.42-.58 4.32 1 6.6.12a4.34 4.34 0 0 0 2.4-2.36c.17-.42.12-.77.36-1.08.43-.54 1.67-.74 2.28-1.08-.05-1.41-1.24-1.16-2.16-.72-1.94.92-1.07 1.4-2 2.88-.22.34-.72.5-1 .84a6.329 6.329 0 0 1-2.4.24c-.77-.19-2.95-1-4-.36-1-.58-.75-4.4-1.44-5.52.09-1.08 2.78-1.63 3.72-2 1.86-.81 5.26-.46 7.44-1h1.8a28.467 28.467 0 0 0 5-2c1.33-.55 2.94-.66 4.08-1.32 0-1.51-.89-.91-1.68-.72-.46.11-.78 0-1.08.24h-.36c.55-1.34 1.12-3 2.28-3.72.85-.53 2.16-.54 2.88-1.2a1.309 1.309 0 0 0 .24-.6 2.413 2.413 0 0 1-.36-.48c-3.43 0-6.5 3.38-6.6 6.6-1.62.4-2.66 1.39-4.44 1.8h-1.56a17.232 17.232 0 0 1-3.84.36H285a16.088 16.088 0 0 0-3.12 1.2 7.471 7.471 0 0 0-2 .84c-2.1-.41-2-2.82-2-5.4v-2.16c.14-.42.59-.65.84-1 1.32.09 3.3.8 5 .36 1.09-.28 2.38-.85 3.48-1.2 2.27-.73 4.62-1.06 6.84-1.68l2.52-.36c2.09-.59 4.27-1.27 6.24-1.92 3.16-1 6.54-.91 9.84-1.8 4.09-1.1 8.14-2.52 12.12-3.84 2-.69 4.22-1.18 6.12-1.8.7-.23 1.42-.1 2-.36 1-.41 2-1.14 3-1.56 1.48-.63 3.49-.59 4.8-1.44 1.63-1.06 2.6-3.21 3.72-4.8 1.84-2.63 4.17-5 5.88-7.68 1-1.53 1.75-3.83 3.36-4.68l.12-.12a5.911 5.911 0 0 0 1.2 1.8c-.17 1.29-2.32 2.75-3 3.84-1.78 2.84-3 5.85-4.92 8.52a13.143 13.143 0 0 1-2.88 2.52c-.56.42-.76 1.12-1.2 1.68-.05 2.1.1 3.29 1.32 4.08.66.43 2.2.24 3.24.24 2.21 0 7.61.41 9.23-.26.21-.41.56-1.29.29-1.75-1.24.16-3.36.29-4.6.45-.81 0-2.31-.23-2.88.12h-4.44l-.84-.84.12-1.8a30.241 30.241 0 0 0 3-2.64c1.41-1.87 2.73-4 4-6 1.36-2.22 2.22-4.92 4.32-6.36l.12-.12a19.901 19.901 0 0 1 1.2 4.2l.12 2.52a29.671 29.671 0 0 1-.24 12.24c-.39 1.73-.25 3.54-.6 5.16l-.6 8.4c-.23 1-.38 2.34-.6 3.36l-.12 3.4c-.7 3.1-.6 7.15-.6 10.92a33.988 33.988 0 0 0 .24 6.6v4.32l.48 5.76-5.47.36h-5.16a25.76 25.76 0 0 1-7.8.12c-3.29-.49-6.7.46-8.88-1-1-.62-3.28-4.22-2.88-6 .31-1.41 1-3.63.6-5.64-.22-1-.16-2.3-.48-3.36a25.606 25.606 0 0 0-1.2-2.52 14.361 14.361 0 0 0-.72-2 19.65 19.65 0 0 0-7.08-6c-.94-.42-2.26-.11-3.24-.36-4.7-1.22-12.93.18-15.84 2.28l-1 1.08a19.292 19.292 0 0 0-3.24 3.72 29.85 29.85 0 0 0-1.32 3.6 14.42 14.42 0 0 1-2.16 2.76zm14.8 22.68c-4.36-.15-7.58-.07-10.08-1.92-3-2.22-1.32-8.79-2.28-13.08-.24-1.08 0-2.4-.48-3.24v-2.4l.72-.48a16.89 16.89 0 0 0 2.28-2.64c1.79-2.69 3.46-5.67 6.36-7.2a12.004 12.004 0 0 1 1.92-.48c1.2-.39 2.77-.64 4.2-1h5a10.24 10.24 0 0 1 4-.24 19.672 19.672 0 0 1 4.8 1.8c.94.65 2.88 4.88 3.24 6.24.24.92-.08 2 .36 2.76 0 1.46.32 1.28-.24 2.14-.28 0-.52 1.87-.8 1.87-.14 2.2-1.77 3.29-2.52 5.03a31.23 31.23 0 0 1-2.28 4.92 17.86 17.86 0 0 1-2.4 2.52l-2.16 2.4a22.07 22.07 0 0 1-5.64 2.76 11.48 11.48 0 0 1-4 .24zm41.52-.28l-.12.72c-2.19-.08-4.19-.45-5.6-.08v.08c-1.36.35-2.29-.57-3.72-.24a18.998 18.998 0 0 1-6.12.24c-2.37-.51-4.69 1.09-7.44.48-3.66-.82-6.79-.36-10.92-.36.49-.37 1.18-.34 1.8-.6a13.43 13.43 0 0 0 5-3.48 24.72 24.72 0 0 0 3.36-4.92 12.36 12.36 0 0 1 .72-1.92c.21-.34.66-.73.84-1.08.28-.55.25-1.22.6-1.68.08-.21 0-.12.12-.24 1.35 5.85 6.35 5.64 13.44 5.64l13.44-.12a20.481 20.481 0 0 1 4.2-.36 9.07 9.07 0 0 0 .24 2.52c-.09 1.15-1.49 1.55-2.28 2a21.787 21.787 0 0 1-4.44 1.92 12.523 12.523 0 0 0-1.92.48 11.983 11.983 0 0 0-1.2 1zm16.72 1h-7.56c-.79 0-2.33.22-2.88-.12h-5l.12-.12c.68-1 2.62-1 3.84-1.44a14.29 14.29 0 0 0 5.4-3.12h.6l.6 1.44c.19.3.53.53.72.84.59.15 1.5.44 2 0a2.23 2.23 0 0 0 1.2-2.64c.21-.04.12-.1.24 0v.12c.63 1 .18 4 .72 4.92zM363 93v-2l.36-4.56c.62-2.4 1.29-5.18 1.92-7.68s.59-5.07 1.2-7.32c.25-.94.12-2 .6-2.76v-.12c.62.88.43 2.43.72 3.6.52 2.09.79 4.14 1.44 6.12 1.89 5.79 2.89 12.3 4.8 18.12.53 1.62.87 3.43 1.44 5.16s1.41 3.31 1.44 5.28l-5 .72-8.88.36-.15-10.48A23.92 23.92 0 0 1 363 93zm11.69 23.48c-.61.45-.68 1.25-1 2-1.13 0-2.6.46-3.48.24-.15 0-.35-.22-.6-.24-1.09-.1-1.88.53-2.76-.12h-3.36a12.178 12.178 0 0 0-.48-4.08v-4.92l9.88-.44a20.506 20.506 0 0 1 4.56-.6c.19 1.33 1.53 4.26 1.44 4.92-.65 2-2.7 2.13-4.2 3.24zm11.32 2.08l-7.08.12c-.79 0-2.33-.22-2.88.12a2.401 2.401 0 0 1-.84-.36c.24-1.45 1.6-1.28 2.64-1.92a6.58 6.58 0 0 0 2.4-2.88 3.51 3.51 0 0 1 1.48 0v.12c.56.28.6 1.07 1 1.56l.84.72c.56 0 .93 0 1.2-.24.62-.23.58-.76 1-1.2.08-.21 0-.12.12-.24a7.1 7.1 0 0 0 .36 1.8 8.784 8.784 0 0 1-.24 2.4z" fill="#59595a"/><path d="M256.57 106.88a34.465 34.465 0 0 0-2.76 2.52c.03.28.02.34.12.48.42.72 1.12-.03 1.56-.36 1.31-.97 2.45-2.19 3.84-3.12l-.12-.6-.84-.12v-.08a16.088 16.088 0 0 1-1.8 1.28zm6.48-33.64c.45-.32.69-.94 1.08-1.32a4.149 4.149 0 0 0-.12-1.2 3.081 3.081 0 0 1-.48-.24c-1.59 0-1.64 1.15-2.4 2-.12.12-.03.04-.24.12-.36-.38-.64-.52-.72-1.2 1.11-.11 3.22-1.58 2.2-2.8-.18-.25-.37-.29-.6-.48-1.66.02-1.75.95-2.52 1.8v.12h-.12a2.2 2.2 0 0 1 .48-1.68 1.2 1.2 0 0 0-.24-.72q-.07.019-.14.043a1.94 1.94 0 0 0-1.18 2.477c.18.66.89.82 1.08 1.2v.6a2.4 2.4 0 0 0 2 1.8c-.05 1.58.52 1.96 1.68 2.28h.84c.93.41.96.84 2.64.84a3.618 3.618 0 0 1 1-.6c.06-.33.14-.35 0-.6-.28-.58-.83-.3-1.08.12a2.6 2.6 0 0 1-1.2-.12c.04-.88 1.79-1.24.84-2.88-.24-.12-.12-.02-.24-.12l-.042.001a2.2 2.2 0 0 0-2.118 2.279 1.41 1.41 0 0 1-1-.24l-.24-.12v-1c.12-.22.62-.21.84-.36zm-1.96-4.12h.4v.24c-.33.32-.46.67-1 .84v.12h-.24a2.32 2.32 0 0 1 .84-1.2zm53.8 24.6a1.309 1.309 0 0 0 .24-.6 11.778 11.778 0 0 0-2.28-2.76c-1.97-1.28-5.51-1.08-8.76-1.08a7.77 7.77 0 0 0-3.68.88 24.16 24.16 0 0 0-2.76 3.48c-1.24 2-.79 8.42-.24 11 .29 1.39-.81 2.92-.12 4.2a5 5 0 0 0 2 1.68c.53.2 1.07.05 1.44.36.7-.16.77-.61 1.56-.72v-.12c-.72-.33-1.66-.79-1.92-1.56-.46-1.4.86-2.84.48-4.56-.57-2.58-1.61-8.5 0-10.92 1.35-2.02 6.2-3.4 9.84-2.4a5.83 5.83 0 0 1 3.6 3.24 1.08 1.08 0 0 0 .6-.12zm-53.28 19.68h.24l.12-.84a1.17 1.17 0 0 1-.36-.6l-.6-.12-.01-.12c-.38.62-.34.88.01 1.68.33.06.35.14.6 0zm9.12-28.08c-.5.99 1.48 2.75 2.16 3.48a1.2 1.2 0 0 0 .72-.24c-.08-.98-1.96-3.1-2.88-3.24zm-1.32-11.52a1.33 1.33 0 0 0-.24-.84h-.48V73a2.5 2.5 0 0 1-1.08.8 2.192 2.192 0 0 0 .12.72c.24.12.12.02.24.12.76-.12.94-.5 1.44-.84zm247.16 44.68h-5c-3.32 0-7.44.27-10.32-.36-2.11-.52-3.17.93-5.28.48-2.26-.49-5.62.39-7.92-.12a30.851 30.851 0 0 0-4.92-.48 2.859 2.859 0 0 1-.4.48c.03.28.02.34.12.48l.12.36c.95.18 2.39-.13 3.48.12a40.651 40.651 0 0 0 12.84 0c1.19-.29 2.36.24 3.36.24l9.6.12h4.32a18.07 18.07 0 0 1 3.6-.48c1.08-.01 3.61.41 4.08.12.54-.06.51-.16.84-.36-.06-.54-.16-.51-.36-.84a30.65 30.65 0 0 0-8.16.24zM259.12 49.2a4.668 4.668 0 0 0-1.08-.12H258c-.11.1-.08-.12-.2.12s-.02.12-.12.24a2.059 2.059 0 0 0 .36 1.2c.24.12.12.02.24.12a1.86 1.86 0 0 0 1.08-.24 2.83 2.83 0 0 0-.24-1.32zm20.01 14.64a1.33 1.33 0 0 0-.24-.84h-.48a5.72 5.72 0 0 1-1.08 1.44 2.189 2.189 0 0 0 .12.72c1.18-.02 1.12-.73 1.68-1.32z" fill="#59595a"/><path d="M261.16 51.72a2.48 2.48 0 0 0 .24-1.44c-.01-2.39-1.85-3.01-4.08-3.12h-.03a8.335 8.335 0 0 1-1.17.84c-.57 1.98-.27 3.44 1.2 4.44 1.19.8 3.44.66 3.84-.72zm-4.2-1.56a3.461 3.461 0 0 1 .24-1.56c.46.08 1.36-.26 2.01 0h.03c.27.11.57.54.84.72a3.3 3.3 0 0 1 0 1.92l-.12.36c-1.77.37-2.24-.49-3-1.44zm-7.39 62.24a12.002 12.002 0 0 0 1.44-1.32 1.76 1.76 0 0 0-.36-.84 2.33 2.33 0 0 0-1-.24l-.04-.08a23.184 23.184 0 0 0-2.12 1.52c-.55.18-.62-.2-1.08.12l-.36.36c.05 1.28.65 1.57 1.2 2.28 1.81-.04.65-.55 1.32-1.32.27-.27.69-.28 1-.48zm-2 1l-.12-.12a1.32 1.32 0 0 1-.6-1.08l.72.72zm.76-1.24h-.24v-.24a6.582 6.582 0 0 0 1.56-1.08h.36c-.3.63-1.2.85-1.68 1.32zm66.2-17.56v-.04c-.43.98-.18 2.51-.84 3.28a1.23 1.23 0 0 0 .24.72c.92-.07 2.06-2.6 1.32-3.6l-.12-.36zm31.44-84.64c-.09-.53-.24-.61-.72-.72-.33.21-1.01.15-1.32.36l-.36.12-.12.36a2.005 2.005 0 0 1 .36.48 3.93 3.93 0 0 0 1.8-.36c.26-.11.17-.11.36-.24zm-.12 1.84a1.61 1.61 0 0 0-.24-1h-.72a2.858 2.858 0 0 1-.36.52c.11 1 .74.85 1.32.48zm104.63 46.32c-.44.38-1.16.58-1.44 1.08-.58 1.02-.24 4.79-.24 6.36a4.498 4.498 0 0 0 1.32 1.08c.67.28 4.18.68 4.8.12 1.52-.56 1.79-6.08 1-7.56-.61-1.2-3.11-1.26-4.92-1.2a3.429 3.429 0 0 1-.52.12zm4.33 2.12l.03.04c.24 1.18.22 4.28-.48 5l-.12.36c-1.3 0-3.07 0-3.84-.6l-.24-.12c0-.89-.22-3.67.12-4.2a1.51 1.51 0 0 1 .48-1.2c.25-.05.23 0 .36-.12a6.08 6.08 0 0 1 3.69.84zM339.57 44.08a3.29 3.29 0 0 1 .6-.36 1.32 1.32 0 0 0-.12-.72v-.28a3.688 3.688 0 0 0-.923-.116c-.25.398-.556.738-.157 1.236a1.43 1.43 0 0 0 .6.24zm-9.4 31.16c.56 1.75-.73 3.73-.84 5.16a5.53 5.53 0 0 1-1.56-1.8 1.41 1.41 0 0 0-1.08.36c.09 1.65 1.49 2.06 2.16 3.12l.24 1c.13.17.43.1.6.24l1.2 1.92c.28.98-.51 3.15-.72 3.84-.88 3.02-2 5.48-2 9.24 0 1.3-.2 3.23.36 4.08.06.65.23.63.48 1a2 2 0 0 0 .84-.24c.33-1.78-.86-4.13-.36-6.36.61-2.71 1.45-5.24 2.28-8 .26-.86.9-2.36.6-3.6s-1.45-1.93-1.8-3 .85-3.92 1.08-4.92c.72-3.16-1.99-5.26-3.36-6.48-.62-.59-1-1.63-2-1.8a2.411 2.411 0 0 1-.56.24c.08 2.11 3.68 3.59 4.44 6zm6.63 4.24l1.32.12a5.58 5.58 0 0 0 2 .12c1.91-.47 4.53-2.16 3.36-5.16a25.68 25.68 0 0 0-5.52-8.4h-.12v-.12c.3.12.51.25.84.12s.26-.17.48-.36c-.11-1.18-1.28-1.38-2.28-1.68-.19-.7-.5-1.07 0-1.56a1.33 1.33 0 0 0-.36-1 4.79 4.79 0 0 0-2.52.36 1 1 0 0 0 .12.6c.19.49.58.45 1.08.6l.12 1-.03-.04a.937.937 0 0 0-.77.04.589.589 0 0 0-.36.84c.15.42.17.48.72.48-.32.61-1.06.78-1.32 1.56-.55 1.64.03 4.27.36 5.64.68 2.84.41 5.84 2.88 6.84zm.53-13.72l.36.12V66a3.352 3.352 0 0 1-1.32-.48 1.41 1.41 0 0 1 .96.24zM335.2 67l1.8.2c2 2.16 5.24 5.39 5.16 9.48-.26.28-.41.74-.72 1-.8.55-3.45 1-4.44.24-1.26-.82-1-2.36-1.44-4.08s-1.31-5.19-.36-6.84zm3.85-24.4c.026 0 .052.004.077.004l.003-.004z" fill="#59595a"/></svg>