<?xml version="1.0" standalone="no"?>
<!DOCTYPE svg PUBLIC "-//W3C//DTD SVG 20010904//EN"
 "http://www.w3.org/TR/2001/REC-SVG-20010904/DTD/svg10.dtd">
<svg version="1.0" xmlns="http://www.w3.org/2000/svg"
 width="60.000000pt" height="60.000000pt" viewBox="0 0 60.000000 60.000000"
 preserveAspectRatio="xMidYMid meet">

<g transform="translate(0.000000,60.000000) scale(0.100000,-0.100000)"
fill="#000000" stroke="none">
<path d="M283 583 c9 -2 25 -2 35 0 9 3 1 5 -18 5 -19 0 -27 -2 -17 -5z"/>
<path d="M368 573 c7 -3 16 -2 19 1 4 3 -2 6 -13 5 -11 0 -14 -3 -6 -6z"/>
<path d="M450 537 c40 -23 64 -47 87 -87 18 -30 33 -50 33 -44 0 6 -13 31 -30
57 -27 43 -108 107 -134 107 -6 0 14 -15 44 -33z"/>
<path d="M107 519 c-21 -17 -44 -45 -52 -62 -15 -32 -15 -32 2 -7 9 14 35 42
57 63 48 45 44 48 -7 6z"/>
<path d="M277 443 c-8 -10 -19 -31 -23 -48 -9 -38 -22 -55 -51 -66 -21 -8 -23
-14 -23 -93 0 -77 2 -86 21 -97 30 -16 129 -116 122 -123 -12 -11 34 -6 79 10
60 20 123 75 152 133 25 49 45 118 26 91 -5 -8 -10 -23 -10 -32 0 -10 -3 -18
-8 -18 -12 0 -222 214 -222 227 0 10 -30 33 -43 33 -2 0 -11 -8 -20 -17z m42
-2 c13 -8 12 -25 -5 -81 -3 -13 3 -15 28 -12 43 4 78 -19 60 -41 -8 -9 -9 -18
-3 -21 5 -3 7 -23 5 -44 -2 -20 -5 -44 -6 -52 -2 -34 -20 -40 -114 -40 l-94 0
0 83 c0 82 0 83 29 94 23 8 32 20 41 54 17 64 31 78 59 60z"/>
<path d="M21 389 c-6 -18 -11 -39 -10 -48 0 -9 7 4 14 29 16 51 13 67 -4 19z"/>
<path d="M577 335 c3 -33 7 -62 9 -64 8 -9 2 85 -6 104 -5 12 -6 -4 -3 -40z"/>
<path d="M12 255 c0 -11 3 -29 8 -40 11 -25 11 1 0 35 -6 20 -8 21 -8 5z"/>
<path d="M30 181 c0 -6 4 -13 10 -16 6 -3 7 1 4 9 -7 18 -14 21 -14 7z"/>
<path d="M58 135 c6 -11 23 -31 39 -45 l28 -25 -30 35 c-47 55 -48 56 -37 35z"/>
<path d="M130 66 c0 -3 9 -10 20 -16 11 -6 20 -8 20 -6 0 3 -9 10 -20 16 -11
6 -20 8 -20 6z"/>
</g>
</svg>
