<?xml version="1.0" standalone="no"?>
<!DOCTYPE svg PUBLIC "-//W3C//DTD SVG 20010904//EN"
 "http://www.w3.org/TR/2001/REC-SVG-20010904/DTD/svg10.dtd">
<svg version="1.0" xmlns="http://www.w3.org/2000/svg"
 width="60.000000pt" height="60.000000pt" viewBox="0 0 60.000000 60.000000"
 preserveAspectRatio="xMidYMid meet">

<g transform="translate(0.000000,60.000000) scale(0.100000,-0.100000)"
fill="#000000" stroke="none">
<path d="M117 413 c-4 -3 -7 -46 -7 -95 l0 -88 123 0 c68 0 127 -4 133 -10 6
-6 8 7 6 35 l-4 45 41 0 41 0 0 -60 0 -60 -33 0 c-18 0 -38 5 -45 12 -9 9 -12
8 -12 -8 0 -11 5 -25 12 -32 15 -15 74 -16 83 -2 5 8 8 98 6 163 -1 9 -8 17
-16 17 -11 0 -15 12 -15 45 l0 45 -153 0 c-85 0 -157 -3 -160 -7z m291 -41 c3
-25 -1 -31 -20 -34 -19 -3 -24 -11 -29 -53 l-7 -50 2 50 c1 42 5 52 24 60 26
11 32 51 6 41 -10 -4 -67 -36 -128 -73 -61 -36 -114 -68 -118 -70 -5 -2 -8 33
-8 79 l0 83 137 -2 138 -1 3 -30z"/>
</g>
</svg>
