<?xml version="1.0" standalone="no"?>
<!DOCTYPE svg PUBLIC "-//W3C//DTD SVG 20010904//EN"
 "http://www.w3.org/TR/2001/REC-SVG-20010904/DTD/svg10.dtd">
<svg version="1.0" xmlns="http://www.w3.org/2000/svg"
 width="60.000000pt" height="60.000000pt" viewBox="0 0 60.000000 60.000000"
 preserveAspectRatio="xMidYMid meet">

<g transform="translate(0.000000,60.000000) scale(0.100000,-0.100000)"
fill="#000000" stroke="none">
<path d="M230 514 c0 -7 4 -24 10 -38 8 -23 15 -26 59 -26 46 0 49 1 55 31 3
17 6 34 6 38 0 3 -29 6 -65 7 -46 0 -65 -3 -65 -12z"/>
<path d="M197 360 c-75 -81 -92 -140 -60 -207 24 -52 86 -77 172 -71 111 8
161 50 161 135 0 48 -22 87 -83 152 -43 46 -52 51 -91 51 -41 0 -48 -4 -99
-60z m175 -46 c30 -28 41 -69 28 -108 -30 -93 -151 -102 -196 -15 -52 102 82
200 168 123z"/>
</g>
</svg>
