<?xml version="1.0" standalone="no"?>
<!DOCTYPE svg PUBLIC "-//W3C//DTD SVG 20010904//EN"
 "http://www.w3.org/TR/2001/REC-SVG-20010904/DTD/svg10.dtd">
<svg version="1.0" xmlns="http://www.w3.org/2000/svg"
 width="60.000000pt" height="60.000000pt" viewBox="0 0 60.000000 60.000000"
 preserveAspectRatio="xMidYMid meet">

<g transform="translate(0.000000,60.000000) scale(0.100000,-0.100000)"
fill="#000000" stroke="none">
<path d="M243 589 c-222 -42 -313 -312 -163 -483 107 -121 308 -126 424 -10
201 201 19 547 -261 493z m127 -125 c13 -33 13 -114 -1 -232 -12 -103 -20
-122 -50 -122 -17 0 -19 9 -21 78 l-2 77 -3 -78 c-4 -78 -4 -78 -30 -75 -26 3
-28 7 -40 88 -15 102 -20 237 -10 267 7 19 15 22 78 22 66 0 70 -2 79 -25z"/>
<path d="M257 432 c-34 -37 -11 -92 38 -92 24 0 55 33 55 57 0 19 -37 53 -58
53 -11 0 -26 -8 -35 -18z m68 -36 c0 -42 -29 -57 -56 -30 -29 29 -11 67 29 62
22 -2 27 -8 27 -32z"/>
</g>
</svg>
