<?xml version="1.0" standalone="no"?>
<!DOCTYPE svg PUBLIC "-//W3C//DTD SVG 20010904//EN"
 "http://www.w3.org/TR/2001/REC-SVG-20010904/DTD/svg10.dtd">
<svg version="1.0" xmlns="http://www.w3.org/2000/svg"
 width="60.000000pt" height="60.000000pt" viewBox="0 0 60.000000 60.000000"
 preserveAspectRatio="xMidYMid meet">

<g transform="translate(0.000000,60.000000) scale(0.100000,-0.100000)"
fill="#000000" stroke="none">
<path d="M140 491 c0 -5 14 -19 30 -31 36 -25 37 -36 8 -67 l-21 -23 -33 25
c-41 31 -44 31 -44 -1 0 -16 13 -39 35 -61 33 -33 37 -34 95 -30 65 4 99 24
84 49 -5 7 -7 25 -5 40 3 32 -13 66 -43 90 -22 19 -106 25 -106 9z"/>
<path d="M500 436 c0 -17 -27 -49 -96 -115 -53 -51 -102 -90 -108 -88 -6 3
-44 -27 -83 -66 l-73 -71 83 -48 c73 -43 86 -48 122 -42 143 23 247 142 249
284 1 90 -7 113 -54 144 l-40 26 0 -24z"/>
<path d="M151 186 c-30 -31 -51 -60 -48 -67 4 -11 6 -11 6 1 1 8 24 38 53 67
29 29 50 53 47 53 -2 0 -29 -24 -58 -54z"/>
</g>
</svg>
